<svg id="Layer_1" data-name="Layer 1" xmlns="http://www.w3.org/2000/svg" viewBox="0 0 635.34 141.84"><defs><style>.cls-1{fill:#231f20;}</style></defs><title>logo meow meow</title><path class="cls-1" d="M172,114.53q0,6.38-.18,12.67t-.36,12.67v41.84q0,9.21-.18,17.78t-.45,15.86q-.27,7.29-.82,11.49l-1.82,2.37a10.32,10.32,0,0,1-3.28.55,19.8,19.8,0,0,1-9-2.37,17.65,17.65,0,0,1-7-6c.12-.48.27-1,.46-1.64a2,2,0,0,1,1-1.28q0-21.88-.27-44a437.17,437.17,0,0,1,1.64-43.85,8.69,8.69,0,0,0-3,2.55q-1.92,2.19-4.57,5.29t-5.57,6.65q-2.92,3.56-5.85,6.47a54.79,54.79,0,0,1-5.57,4.92,8.14,8.14,0,0,1-4.66,2,12.63,12.63,0,0,1-3.2-.45,11.46,11.46,0,0,1-3.2-1.37,6.27,6.27,0,0,1-2.19-2.19,3.08,3.08,0,0,1,0-2.92l-2.19-3.28a32.42,32.42,0,0,1-2-3.46l.36.36q-2.56-4.92-5.29-9.75t-5.3-9.57q-.18,3.65-.27,7t-.09,7v41.84q0,9.21-.18,17.78t-.45,15.86q-.27,7.29-.82,11.49l-1.8,2.37a10.17,10.17,0,0,1-3.25.55,19.5,19.5,0,0,1-8.95-2.37,17.63,17.63,0,0,1-7-6c.12-.48.27-1,.46-1.64a2,2,0,0,1,1-1.28V203.77q0-10.67.09-24.43t.45-28.81q.36-15,1-28.08t1.73-22.24q1.09-9.21,2.73-11l2-.55c0-.24.18-.36.55-.36a.73.73,0,0,0,.73-.36h2a7,7,0,0,1,2.83.82,7,7,0,0,1,2.46,1.73l.18.55a19.08,19.08,0,0,1,2.37,2,7.1,7.1,0,0,1,1.64,2.55,19.78,19.78,0,0,1,1.37,4.28,28.88,28.88,0,0,0,1.19,4.28,196.18,196.18,0,0,0,15.68,33.18l-.36-.36a29.65,29.65,0,0,1,1.64,3,27.91,27.91,0,0,0,1.64,3q1.82-2.37,3.37-4.65t3.19-4.65q6.74-9.84,12.94-19.6T151.4,93.93a2.94,2.94,0,0,1,2.92-1.46l.18-.18a4,4,0,0,1,.73-1.64l1.09-1.46,2-.55c0-.24.18-.36.55-.36a.73.73,0,0,0,.73-.36h2a6.28,6.28,0,0,1,4,1.46,15.84,15.84,0,0,1,5.29,7.93,15.47,15.47,0,0,1,.73,4.28v-.73q0,3.47.18,6.84T172,114.53ZM85.59,103.41a90.1,90.1,0,0,0-1.82,13.22q-.55,7.57-.64,15.5t0,15.59q.09,7.66.09,13.49v16.41l.18,1.46v.18l.18-.18q0-16.41.73-32.54T85,113.8a32,32,0,0,1,.46-5.29A16.2,16.2,0,0,0,85.59,103.41ZM83.4,187.27c-.12,0-.18.18-.18.55q0,2.56.09,5.29a47.42,47.42,0,0,1-.09,5.1l.18.36v.18c.12,0,.18-.33.18-1v-1.37a17.33,17.33,0,0,0,.36-3.37v-3.37l-.18-1.82-.18-.36v-.18Zm5.1-52.32v-.55l-.18.18a79.59,79.59,0,0,0-1.54,15.13q-.1,8.2-.1,15.13v2.73l.18,1.46V166.3l.18-2.74q0-1.46.09-2.64t.27-2.64q.23-2.55.57-5.1a38.35,38.35,0,0,0,.34-5.1l.18-.36.18-5.1V136Zm-1,45.21v.36a1.52,1.52,0,0,0,.12.64.66.66,0,0,1-.12.64l-.24.36a4.71,4.71,0,0,0,.18,1.46l.18.18V184h.18l.18-.73.18-1.09V181c0-.55-.06-.82-.18-.82Zm31.3-32.82a4,4,0,0,0-1-2.64,16,16,0,0,1-1.73-2.46q-2.56-5.1-4.74-10.3t-4.56-10.48q-.18-.36-.73-1.64t-1.19-2.64q-.64-1.37-1.18-2.46c-.36-.73-.61-1.09-.73-1.09v.18a75.55,75.55,0,0,0,3.65,9.48q2.19,4.74,4.19,9.48v.36a44.45,44.45,0,0,1,3.74,7.38,25.83,25.83,0,0,0,4.1,7h.18Zm36.46-49.59a23.19,23.19,0,0,0-2.74,3q-2.19,2.65-5.1,6.65l-6.29,8.66q-3.38,4.65-6.29,8.84t-4.92,7.29a33,33,0,0,0-2.37,4v.18c.36,0,.55-.24.55-.73l3.83-5.65,2.46-3.28q1.92-2.55,4.56-5.93t5.56-7.2q2.91-3.83,5.29-7.2t4-5.74a9.15,9.15,0,0,0,1.64-2.92Zm-.55,36.83c0-.48,0-1.46-.09-2.92a10.37,10.37,0,0,0-.27-2.55q-.73,8-.82,15.77T153,160.65v7.11l.18,8.39v3.28l.36,4.74v2.37l.18-1.09-.18-2.92.18-.73v-4.38l.36-8.93.18-7.29q.18-4.74.27-9.3t.09-9.3ZM158,208.24a16.44,16.44,0,0,0-.36-2.1c-.24-1.15-.55-1.73-.91-1.73h-.18l-.18.36a7.61,7.61,0,0,0,.36,1.82,11.68,11.68,0,0,0,.73,2,5.31,5.31,0,0,0,.09.73c.06.36.15.55.27.55H158l-.18-.55Zm0-65.45q-.37,2.56-.64,5.19a52.06,52.06,0,0,0-.27,5.38v39.2l.18,2.19v.18l.18-.18q0-12.94.36-25.71t.36-25.71v-.55Z" transform="translate(-76.65 -87.91)"/><path class="cls-1" d="M230.89,195.47a1.17,1.17,0,0,1,1.19,1,6.71,6.71,0,0,1,.27,1.73,24.56,24.56,0,0,1-2.37,10,41.86,41.86,0,0,1-6.2,9.84,36.43,36.43,0,0,1-8.66,7.57,18.29,18.29,0,0,1-9.75,3A33.08,33.08,0,0,1,191,225.83a26.06,26.06,0,0,1-9.7-7.75,32.94,32.94,0,0,1-5.55-11.58A54.15,54.15,0,0,1,174,192.37a109.77,109.77,0,0,1,.91-12.85,102.45,102.45,0,0,1,3-15.13,71.64,71.64,0,0,1,5.47-14,24.72,24.72,0,0,1,8.11-9.57,11.34,11.34,0,0,1,6.2-2.1q3.28-.09,6.56.09a2.37,2.37,0,0,1,2.19-1.28,14.27,14.27,0,0,1,8,2.28,20.57,20.57,0,0,1,5.83,5.83,29.31,29.31,0,0,1,3.65,7.75,28.18,28.18,0,0,1,1.28,8.2,44,44,0,0,1-2,13.22,33.27,33.27,0,0,1-6,11.3,24.32,24.32,0,0,1-9.78,7.2q-5.81,2.37-13.55.73a7.87,7.87,0,0,0-.18,1.55v1.55a98.34,98.34,0,0,0,.55,10.3,34.6,34.6,0,0,0,2.55,9.94,12.82,12.82,0,0,0,1.91-.55q1-.36,1.91-.73h-.18a20.2,20.2,0,0,0,7.84-4.56,61.3,61.3,0,0,1,6.93-5.65V206q3.28-2.37,6-4.74t5.83-5.1a10,10,0,0,1,1.91-.55A10.84,10.84,0,0,1,230.89,195.47Zm-36.82-50.14q-3.61,1.64-6.4,7.57A75.87,75.87,0,0,0,183,166a124.52,124.52,0,0,0-2.88,14.22,84,84,0,0,0-1,11,45.48,45.48,0,0,0,.55,7.11l.18-.18q-1.09-2.91-.46-9.12a112.15,112.15,0,0,1,2.17-13q1.53-6.84,3.51-13.13t3.42-9.75q.72-1.64,1.53-3.28a9.5,9.5,0,0,1,2.25-2.92,2.35,2.35,0,0,1,1.17-.55.88.88,0,0,0,.81-.91Zm-1.28,10.76a10.39,10.39,0,0,0-3,4.74,41.41,41.41,0,0,0-1.28,5.74q-.46,3-.82,5.83a10.32,10.32,0,0,1-1.64,4.65q-.37,3.83-.91,7.66a55.38,55.38,0,0,0-.55,7.84l.18,1.64v0l.18-.55V191.1l.36-3.1.73-6q.36-2.55.82-5.65a29.32,29.32,0,0,1,1.37-5.65,5,5,0,0,1,.27-2.28q.45-1.73,1-3.65T190.6,161a17.86,17.86,0,0,1,.91-2.55,3.63,3.63,0,0,1,.91-1.18,1.47,1.47,0,0,0,.55-1.19Zm-.18,61.8a1.25,1.25,0,0,0-.91-.36l.73.36Zm2.2-28.81a9.3,9.3,0,0,0,1.12-.18c.62-.12.93-.24.93-.36a16,16,0,0,0,6.06-3.83,23.49,23.49,0,0,0,4.2-5.83,27.06,27.06,0,0,0,2.43-6.93,35.54,35.54,0,0,0,.75-7.11,43.84,43.84,0,0,0-.55-7q-.55-3.37-1.28-7a40,40,0,0,0-5.71,8.48,65.46,65.46,0,0,0-3.93,9.66q-1.59,5-2.71,10.21t-1.87,9.94Zm25.51,17v.18l-.36.18-.91.73-.18.18-1.46,1.28-2.73,2.55-2.37,2q-1.09.91-2.19,1.91a24.89,24.89,0,0,1-2.37,1.91,12.29,12.29,0,0,1-2.19,1.37l-2.37,1.19-2.19.73v.18l.91-.36c.48.24,1.24.09,2.28-.46a34.46,34.46,0,0,0,3.28-2q1.73-1.18,3.19-2.28a21.07,21.07,0,0,0,2-1.64v-.18a19.3,19.3,0,0,0,3.92-3.46,44.08,44.08,0,0,1,3.74-3.83Zm-6.74-29.53.18-.18c.36-.61.48-1,.36-1.28a27,27,0,0,0,1.28-4.92q.36-2.37.73-5.1v-3.1a20.39,20.39,0,0,0-.27-2.55c-.18-1.21-.4-1.82-.64-1.82v.73l.18,1.82v4l-.36,5.1a6.07,6.07,0,0,1-.18,1.46l-.36,1.46-.36,2-.55,1.64Zm2.92,37a7.18,7.18,0,0,1-1.09.91,2.86,2.86,0,0,0-.73.55l-.36.36-.55.73v.18h.36l1.64-1.64.73-.91Zm1.46-37.92a7.88,7.88,0,0,1,.64-1.91,7.05,7.05,0,0,0,.64-2.1v-2H219c-.12,0-.21.18-.27.55a5.21,5.21,0,0,0-.09.73c-.12.61-.27,1.28-.46,2a8.36,8.36,0,0,0-.27,2v.73Z" transform="translate(-76.65 -87.91)"/><path class="cls-1" d="M282.11,190.55a63.83,63.83,0,0,1-.82,9.94,34.57,34.57,0,0,1-2.92,9.57,20.19,20.19,0,0,1-5.83,7.29,15.1,15.1,0,0,1-9.57,2.92q-13.67,0-21.33-8.29T234,190.37v-1.09q.18-4,.82-10.3t1.91-12.76A89.12,89.12,0,0,1,240,154a22.7,22.7,0,0,1,4.92-8.66l-.36.18a5.67,5.67,0,0,1,1.91-.73l2.1-.36a8.49,8.49,0,0,0-.09-1.19,1.63,1.63,0,0,1,.27-1.18,11.12,11.12,0,0,1,3.65-2.55,5.05,5.05,0,0,0,1-.09,5.12,5.12,0,0,1,1-.09A18.47,18.47,0,0,1,268.26,145a39.15,39.15,0,0,1,8.48,13.67,77.19,77.19,0,0,1,4.19,16.77A115.24,115.24,0,0,1,282.11,190.55ZM246.2,152.08a8.27,8.27,0,0,0-.73,2.73,53.09,53.09,0,0,0-2.46,8.11q-1,4.47-1.73,9.21t-1.09,9.48q-.37,4.74-.36,8.57,0,4.56.46,9.48a38.23,38.23,0,0,0,1.91,9.12v-.18a66.31,66.31,0,0,1-1.18-8.84q-.27-4.28-.27-8.84a44.5,44.5,0,0,1,.91-8.75,29.93,29.93,0,0,0,.55-8.57q1.27-6.74,2-10.67t1.37-7.29Q246.2,152.27,246.2,152.08Zm-.36,17.14c-.12,0-.18.09-.18.27a.63.63,0,0,1-.18.46,17.71,17.71,0,0,0-1.18,7.66,23.71,23.71,0,0,1-.64,7.47l.18.73v-.18l.18-1.09a36.25,36.25,0,0,0,.46-4.47,35.48,35.48,0,0,1,.46-4.47l.18-.18a7.1,7.1,0,0,1,.36-3.19,9,9,0,0,0,.55-3Zm-1.28-23.7a.16.16,0,0,1-.18.18A.16.16,0,0,0,244.56,145.52Zm5.29-4.74a.16.16,0,0,1-.18.18A.16.16,0,0,0,249.85,140.78Zm17,37.56a67.06,67.06,0,0,0-1.91-15.77,69.82,69.82,0,0,0-5.38-14.86l-1.46.55H255.5c.12,0,.18.12.18.36l.73,1.82v.91l-.18-.18A129.65,129.65,0,0,1,255,169.31a130.57,130.57,0,0,0-1.28,18.32q0,5.11.27,10.21a50.62,50.62,0,0,0,1.55,10,6.62,6.62,0,0,0,2.1-1.18,11.77,11.77,0,0,0,1.73-1.73h.18a18.71,18.71,0,0,0,3.55-5.74,45.93,45.93,0,0,0,2.19-6.93,57.78,57.78,0,0,0,1.19-7.2Q266.8,181.44,266.8,178.34Zm6.38,3.83a43.88,43.88,0,0,0-.91-8.57l-.91-3.28a.16.16,0,0,1-.18-.18A.16.16,0,0,0,271,170l.18,1.46c.12-.24.21-.24.27,0s.12.58.18,1,.12.91.18,1.46a13.22,13.22,0,0,1,.09,1.37,15.78,15.78,0,0,1,.36,2.92v7.48a21.3,21.3,0,0,1-.27,3.1,24.87,24.87,0,0,1-.64,3.1,8.06,8.06,0,0,1-.55,3.28q-.73,2.37-1.64,5.1t-1.91,5.2l-1.37,3.37h.18q.18,0,.55-1.09a13.12,13.12,0,0,1,.55-1.46q2.37-6.38,4.19-11.76A38.3,38.3,0,0,0,273.18,182.16Zm.36,16.77q-.73,1.46-1.19,2.46a15.44,15.44,0,0,0-.73,1.91,6.5,6.5,0,0,0-.27,1.09h.18l.55-1.28a19.08,19.08,0,0,0,1-1.82,5.33,5.33,0,0,0,.64-1.64v-.55Z" transform="translate(-76.65 -87.91)"/><path class="cls-1" d="M375.09,146.07q0,4.2-.09,11.39T374.36,173a165.15,165.15,0,0,1-2,17,79.87,79.87,0,0,1-4.19,15.59,34.4,34.4,0,0,1-7,11.49,14,14,0,0,1-10.48,4.47,18.24,18.24,0,0,1-9.48-2.28,19.52,19.52,0,0,1-6.29-5.93,36.9,36.9,0,0,1-4.1-8.2q-1.64-4.56-2.92-8.93-.91,2.19-2.1,4.74a39.2,39.2,0,0,1-2.74,4.92,49.34,49.34,0,0,1-3.28,4.47,12.11,12.11,0,0,1-3.92,3.19l.18-.36a10.21,10.21,0,0,1-6.38,1.82q-9.48,0-14.59-4.83a28.52,28.52,0,0,1-7.47-11.94,58.35,58.35,0,0,1-2.83-15.31q-.46-8.2-.46-14.95V155.18q0-6.38.36-12.76v1.09a10.63,10.63,0,0,1,.18-1.91q.18-1,.36-1.91v.36l.55-2.92v.18a7,7,0,0,1,.73-2q.36-.55,2-.55a14.93,14.93,0,0,1,3.37.45,19.48,19.48,0,0,1,3.83,1.37,16.88,16.88,0,0,1,3.37,2.1,6.68,6.68,0,0,1,2,2.46,41.87,41.87,0,0,1,3.19,14.13q.45,7.75.46,16t.09,16.41a58.48,58.48,0,0,0,2.1,15.31,35,35,0,0,0,8-11.39,118.28,118.28,0,0,0,5.38-14.31q2.28-7.47,4.19-14.95t4.1-13.67q.91-.36,1.91-.73a5.6,5.6,0,0,1,1.91-.36,10.72,10.72,0,0,1,5.2,1.46,10.57,10.57,0,0,1,3.92,3.46q1.27,2,1.73,9t1,15.59q.55,8.57,1.55,17.23a48.14,48.14,0,0,0,3.37,13.95,26.83,26.83,0,0,0,6.93-9A64.42,64.42,0,0,0,360.6,187a99.5,99.5,0,0,0,2.55-14q.82-7.38,1.09-14.58t.27-13.86V132.76l1.09-1.28h1.09a8.47,8.47,0,0,1,4.56,1.37,16.63,16.63,0,0,1,3.65,3Zm-82,57.61a85.54,85.54,0,0,1-3.46-14.4,131.82,131.82,0,0,1-1.37-14.68q-.27-7.38-.09-14.77t.18-14.86h-.18q-.37,3.1-1,6.11a30.15,30.15,0,0,0-.64,6.29v8q0,1.82.27,6.2t.82,9.39q.55,5,1.09,9.48a50.66,50.66,0,0,0,1.09,6.47,14.52,14.52,0,0,1,.55,1.46c.24.73.55,1.52.91,2.37s.7,1.58,1,2.19.58.91.82.91Zm-4.56-36.46q0,.91.18,2.83t.55,3.92q.36,2,.73,3.65a4.65,4.65,0,0,0,.91,2.19H291l-.18-.36v-.18l-.18-1.09-.18-.18q-.37-5.47-.46-10.39T290,157.19c0-.48-.12-.61-.36-.36q-.37,1.82-.73,3.83a22.23,22.23,0,0,0-.36,4ZM328.05,163l-.18.18a166.82,166.82,0,0,1-5.2,17.23,156.8,156.8,0,0,1-7.2,16.68q-.18.37-1.09,2.46a11.69,11.69,0,0,0-.91,2.46h.18l1.28-2.73q1.82-3.83,4.1-8.29t4.29-9.12a81.66,81.66,0,0,0,3.37-9.3,31.89,31.89,0,0,0,1.37-9Zm20.42,48.49q-.73-.91-1.37-1.73a4.32,4.32,0,0,1-.82-2.1v-.91c0-.48-.12-.73-.36-.73l-.18.36v1.64a3.34,3.34,0,0,0,1,2.46l1.91,1.91,1.28.18,1.09-.36h-.73A3.53,3.53,0,0,1,348.47,211.52Zm20.6-63.63a67.13,67.13,0,0,0-1.55,9.3q-.46,4.74-.82,9.48t-1,9.48a54.4,54.4,0,0,1-2.1,9.3l-3.46,10.94-1.46,4.38-.73,2.19v.18c.24,0,.55-.57.91-1.73a21.23,21.23,0,0,1,.73-2.1,260,260,0,0,0,7-25.34,121.51,121.51,0,0,0,2.64-26.07Zm.55,27.17q-.18,0-.55,1.37a9.23,9.23,0,0,0-.36,1.73v2.55l.18.18c.24,0,.33-.12.27-.36a2.4,2.4,0,0,1-.09-.55c.12-.61.27-1.21.45-1.82a5.74,5.74,0,0,0,.27-1.64v-1.28Z" transform="translate(-76.65 -87.91)"/><path class="cls-1" d="M508.91,114.53q0,6.38-.19,12.67t-.37,12.67v41.84q0,9.21-.18,17.78t-.46,15.86q-.27,7.29-.82,11.49l-1.82,2.37a10.36,10.36,0,0,1-3.28.55,19.83,19.83,0,0,1-9-2.37,17.65,17.65,0,0,1-7-6c.12-.48.28-1,.46-1.64a2,2,0,0,1,1-1.28q0-21.88-.28-44a437.17,437.17,0,0,1,1.64-43.85,8.67,8.67,0,0,0-3,2.55q-1.92,2.19-4.57,5.29t-5.57,6.65q-2.92,3.56-5.85,6.47a55,55,0,0,1-5.57,4.92,8.14,8.14,0,0,1-4.66,2,12.63,12.63,0,0,1-3.2-.45,11.46,11.46,0,0,1-3.2-1.37,6.27,6.27,0,0,1-2.19-2.19,3.08,3.08,0,0,1,0-2.92l-2.19-3.28a32.42,32.42,0,0,1-2-3.46l.36.36q-2.56-4.92-5.29-9.75t-5.3-9.57q-.18,3.65-.27,7t-.09,7v41.84q0,9.21-.18,17.78t-.45,15.86q-.27,7.29-.82,11.49l-1.8,2.37a10.17,10.17,0,0,1-3.25.55,19.5,19.5,0,0,1-8.95-2.37,17.63,17.63,0,0,1-7-6c.12-.48.27-1,.46-1.64a2,2,0,0,1,1-1.28V203.77q0-10.67.09-24.43t.45-28.81q.36-15,1-28.08t1.73-22.24q1.09-9.21,2.73-11l2-.55c0-.24.18-.36.55-.36a.73.73,0,0,0,.73-.36h2a7,7,0,0,1,2.83.82,7,7,0,0,1,2.46,1.73l.18.55a19.08,19.08,0,0,1,2.37,2,7.1,7.1,0,0,1,1.64,2.55,19.78,19.78,0,0,1,1.37,4.28,28.88,28.88,0,0,0,1.19,4.28A196.18,196.18,0,0,0,454,137.32l-.36-.36a29.65,29.65,0,0,1,1.64,3,27.91,27.91,0,0,0,1.64,3q1.82-2.37,3.37-4.65t3.19-4.65q6.74-9.84,12.94-19.6T488.3,93.93a2.94,2.94,0,0,1,2.92-1.46l.19-.18a4,4,0,0,1,.73-1.64l1.09-1.46,2-.55c0-.24.18-.36.55-.36a.73.73,0,0,0,.73-.36h2a6.28,6.28,0,0,1,4,1.46,15.8,15.8,0,0,1,5.29,7.93,15.49,15.49,0,0,1,.73,4.28v-.73q0,3.47.18,6.84C508.84,109.94,508.91,112.22,508.91,114.53Zm-86.42-11.12a90.1,90.1,0,0,0-1.82,13.22q-.55,7.57-.64,15.5t0,15.59q.09,7.66.09,13.49v16.41l.18,1.46v.18l.18-.18q0-16.41.73-32.54t.73-32.72a32,32,0,0,1,.46-5.29A16.2,16.2,0,0,0,422.49,103.41Zm-2.19,83.86c-.12,0-.18.18-.18.55q0,2.56.09,5.29a47.42,47.42,0,0,1-.09,5.1l.18.36v.18c.12,0,.18-.33.18-1v-1.37a17.33,17.33,0,0,0,.36-3.37v-3.37l-.18-1.82-.18-.36v-.18Zm5.1-52.32v-.55l-.18.18a79.59,79.59,0,0,0-1.54,15.13q-.1,8.2-.1,15.13v2.73l.18,1.46V166.3l.18-2.74q0-1.46.09-2.64t.27-2.64q.23-2.55.57-5.1a38.35,38.35,0,0,0,.34-5.1l.18-.36.18-5.1V136Zm-1,45.21v.36a1.52,1.52,0,0,0,.12.64.66.66,0,0,1-.12.64l-.24.36a4.71,4.71,0,0,0,.18,1.46l.18.18V184h.18l.18-.73.18-1.09V181c0-.55-.06-.82-.18-.82Zm31.3-32.82a4,4,0,0,0-1-2.64,16,16,0,0,1-1.73-2.46q-2.56-5.1-4.74-10.3t-4.56-10.48q-.18-.36-.73-1.64t-1.19-2.64q-.64-1.37-1.18-2.46c-.36-.73-.61-1.09-.73-1.09v.18a75.55,75.55,0,0,0,3.65,9.48q2.19,4.74,4.19,9.48v.36a44.45,44.45,0,0,1,3.74,7.38,25.83,25.83,0,0,0,4.1,7h.18Zm36.46-49.59a23.2,23.2,0,0,0-2.73,3q-2.19,2.65-5.11,6.65L478,116.08q-3.37,4.65-6.29,8.84t-4.92,7.29a33,33,0,0,0-2.37,4v.18c.36,0,.55-.24.55-.73L468.8,130l2.46-3.28q1.92-2.55,4.56-5.93t5.56-7.2q2.91-3.83,5.29-7.2t4-5.74a9.24,9.24,0,0,0,1.64-2.92Zm-.55,36.83c0-.48,0-1.46-.09-2.92a10.08,10.08,0,0,0-.28-2.55q-.73,8-.82,15.77t-.46,15.77v7.11l.18,8.39v3.28l.37,4.74v2.37l.18-1.09-.18-2.92.18-.73v-4.38l.37-8.93.18-7.29q.19-4.74.28-9.3t.09-9.3Zm3.28,73.65a16.57,16.57,0,0,0-.37-2.1q-.36-1.73-.91-1.73h-.18l-.19.36a7.78,7.78,0,0,0,.37,1.82,11.42,11.42,0,0,0,.73,2,5.31,5.31,0,0,0,.09.73c.06.36.15.55.27.55h.19l-.19-.55Zm0-65.45c-.25,1.7-.46,3.44-.64,5.19a52.86,52.86,0,0,0-.27,5.38v39.2l.18,2.19v.18l.19-.18q0-12.94.36-25.71t.37-25.71v-.55Z" transform="translate(-76.65 -87.91)"/><path class="cls-1" d="M567.79,195.47a1.17,1.17,0,0,1,1.19,1,6.84,6.84,0,0,1,.27,1.73,24.59,24.59,0,0,1-2.37,10,41.86,41.86,0,0,1-6.2,9.84,36.4,36.4,0,0,1-8.66,7.57,18.29,18.29,0,0,1-9.75,3,33.08,33.08,0,0,1-14.32-2.83,26.06,26.06,0,0,1-9.7-7.75,32.94,32.94,0,0,1-5.55-11.58,54.15,54.15,0,0,1-1.79-14.13,109.5,109.5,0,0,1,.91-12.85,102.08,102.08,0,0,1,3-15.13,71.46,71.46,0,0,1,5.47-14,24.7,24.7,0,0,1,8.11-9.57,11.34,11.34,0,0,1,6.2-2.1q3.28-.09,6.56.09a2.37,2.37,0,0,1,2.19-1.28,14.26,14.26,0,0,1,8,2.28,20.52,20.52,0,0,1,5.83,5.83,29.22,29.22,0,0,1,3.65,7.75,28.13,28.13,0,0,1,1.28,8.2,44,44,0,0,1-2,13.22,33.25,33.25,0,0,1-6,11.3,24.29,24.29,0,0,1-9.78,7.2q-5.81,2.37-13.55.73a7.78,7.78,0,0,0-.19,1.55v1.55a98.73,98.73,0,0,0,.55,10.3,34.6,34.6,0,0,0,2.55,9.94,12.74,12.74,0,0,0,1.91-.55q1-.36,1.91-.73h-.18a20.2,20.2,0,0,0,7.84-4.56,61.29,61.29,0,0,1,6.93-5.65V206q3.28-2.37,6-4.74t5.83-5.1a10,10,0,0,1,1.91-.55A10.85,10.85,0,0,1,567.79,195.47ZM531,145.34q-3.6,1.64-6.39,7.57A75.76,75.76,0,0,0,519.89,166,124.83,124.83,0,0,0,517,180.25a83.74,83.74,0,0,0-1,11,45.65,45.65,0,0,0,.55,7.11l.18-.18q-1.09-2.91-.46-9.12a112.15,112.15,0,0,1,2.17-13q1.53-6.84,3.51-13.13t3.42-9.75q.72-1.64,1.53-3.28a9.48,9.48,0,0,1,2.25-2.92,2.36,2.36,0,0,1,1.17-.55.88.88,0,0,0,.81-.91Zm-1.28,10.76a10.39,10.39,0,0,0-3,4.74,41.41,41.41,0,0,0-1.28,5.74q-.46,3-.82,5.83a10.3,10.3,0,0,1-1.64,4.65q-.37,3.83-.91,7.66a55.17,55.17,0,0,0-.55,7.84l.18,1.64v0l.18-.55V191.1l.36-3.1.73-6q.36-2.55.82-5.65a29.43,29.43,0,0,1,1.37-5.65,5,5,0,0,1,.28-2.28q.45-1.73,1-3.65T527.5,161a18,18,0,0,1,.91-2.55,3.61,3.61,0,0,1,.91-1.18,1.47,1.47,0,0,0,.55-1.19Zm-.18,61.8a1.24,1.24,0,0,0-.91-.36l.73.36Zm2.2-28.81a9.31,9.31,0,0,0,1.12-.18c.62-.12.93-.24.93-.36a16,16,0,0,0,6.06-3.83,23.49,23.49,0,0,0,4.2-5.83,27,27,0,0,0,2.43-6.93,35.54,35.54,0,0,0,.75-7.11,44,44,0,0,0-.55-7q-.55-3.37-1.28-7a40,40,0,0,0-5.71,8.48,65.46,65.46,0,0,0-3.93,9.66q-1.59,5-2.71,10.21t-1.87,9.94Zm25.51,17v.18l-.36.18-.91.73-.18.18-1.46,1.28-2.73,2.55-2.37,2q-1.09.91-2.19,1.91a25,25,0,0,1-2.37,1.91,12.39,12.39,0,0,1-2.19,1.37l-2.37,1.19-2.19.73v.18l.91-.36c.48.24,1.24.09,2.28-.46a34.1,34.1,0,0,0,3.28-2q1.73-1.18,3.19-2.28a21.19,21.19,0,0,0,2-1.64v-.18a19.3,19.3,0,0,0,3.92-3.46,44.49,44.49,0,0,1,3.74-3.83Zm-6.74-29.53.18-.18c.37-.61.48-1,.37-1.28a27.07,27.07,0,0,0,1.28-4.92q.36-2.37.73-5.1v-3.1a20.12,20.12,0,0,0-.27-2.55c-.18-1.21-.4-1.82-.64-1.82v.73l.18,1.82v4l-.36,5.1a6.14,6.14,0,0,1-.18,1.46l-.37,1.46-.36,2-.55,1.64Zm2.92,37a7.19,7.19,0,0,1-1.1.91,2.86,2.86,0,0,0-.73.55l-.36.36-.55.73v.18H551l1.64-1.64.73-.91Zm1.46-37.92a7.85,7.85,0,0,1,.64-1.91,7.07,7.07,0,0,0,.64-2.1v-2h-.18c-.12,0-.21.18-.27.55a5.53,5.53,0,0,0-.09.73c-.12.61-.27,1.28-.45,2a8.3,8.3,0,0,0-.28,2v.73Z" transform="translate(-76.65 -87.91)"/><path class="cls-1" d="M619,190.55a63.51,63.51,0,0,1-.82,9.94,34.47,34.47,0,0,1-2.92,9.57,20.13,20.13,0,0,1-5.83,7.29,15.09,15.09,0,0,1-9.57,2.92q-13.67,0-21.33-8.29t-7.66-21.6v-1.09q.18-4,.82-10.3t1.91-12.76A89.12,89.12,0,0,1,576.9,154a22.68,22.68,0,0,1,4.92-8.66l-.37.18a5.7,5.7,0,0,1,1.91-.73l2.1-.36a8.69,8.69,0,0,0-.09-1.19,1.62,1.62,0,0,1,.27-1.18,11.12,11.12,0,0,1,3.65-2.55,5,5,0,0,0,1-.09,5.11,5.11,0,0,1,1-.09A18.47,18.47,0,0,1,605.16,145a39.19,39.19,0,0,1,8.48,13.67,77.19,77.19,0,0,1,4.19,16.77A115.27,115.27,0,0,1,619,190.55ZM583.1,152.08a8.27,8.27,0,0,0-.73,2.73,53.09,53.09,0,0,0-2.46,8.11q-1,4.47-1.73,9.21t-1.1,9.48q-.37,4.74-.36,8.57,0,4.56.46,9.48a38.23,38.23,0,0,0,1.91,9.12v-.18a66.32,66.32,0,0,1-1.19-8.84q-.27-4.28-.27-8.84a44.6,44.6,0,0,1,.91-8.75,29.88,29.88,0,0,0,.55-8.57q1.27-6.74,2-10.67t1.37-7.29Q583.1,152.27,583.1,152.08Zm-.36,17.14c-.12,0-.18.09-.18.27a.62.62,0,0,1-.18.46,17.75,17.75,0,0,0-1.19,7.66,23.71,23.71,0,0,1-.64,7.47l.18.73v-.18l.18-1.09a36.25,36.25,0,0,0,.46-4.47,35.22,35.22,0,0,1,.46-4.47l.18-.18a7.1,7.1,0,0,1,.36-3.19,9,9,0,0,0,.55-3Zm-1.28-23.7a.16.16,0,0,1-.18.18A.16.16,0,0,0,581.46,145.52Zm5.29-4.74a.16.16,0,0,1-.18.18A.16.16,0,0,0,586.75,140.78Zm17,37.56a67.06,67.06,0,0,0-1.91-15.77,69.82,69.82,0,0,0-5.38-14.86l-1.46.55H592.4c.12,0,.18.12.18.36l.73,1.82v.91l-.18-.18a129.43,129.43,0,0,1-1.28,18.14,130.78,130.78,0,0,0-1.28,18.32q0,5.11.27,10.21a50.72,50.72,0,0,0,1.55,10,6.63,6.63,0,0,0,2.1-1.18,11.71,11.71,0,0,0,1.73-1.73h.18a18.65,18.65,0,0,0,3.55-5.74,45.61,45.61,0,0,0,2.19-6.93,57.26,57.26,0,0,0,1.19-7.2Q603.7,181.44,603.7,178.34Zm6.38,3.83a43.78,43.78,0,0,0-.91-8.57l-.91-3.28a.16.16,0,0,1-.18-.18.16.16,0,0,0-.18-.18l.18,1.46c.12-.24.21-.24.27,0s.12.58.18,1,.12.91.18,1.46a12.52,12.52,0,0,1,.09,1.37,15.75,15.75,0,0,1,.36,2.92v7.48a21.28,21.28,0,0,1-.27,3.1,25.15,25.15,0,0,1-.64,3.1,8.1,8.1,0,0,1-.55,3.28q-.73,2.37-1.64,5.1t-1.91,5.2q-1,2.46-1.37,3.37H603c.12,0,.3-.36.55-1.09a13.51,13.51,0,0,1,.55-1.46q2.37-6.38,4.2-11.76A38.3,38.3,0,0,0,610.08,182.16Zm.37,16.77q-.73,1.46-1.19,2.46a14.59,14.59,0,0,0-.73,1.91,6.35,6.35,0,0,0-.27,1.09h.18l.55-1.28a19.4,19.4,0,0,0,1-1.82,5.38,5.38,0,0,0,.64-1.64v-.55Z" transform="translate(-76.65 -87.91)"/><path class="cls-1" d="M712,146.07q0,4.2-.09,11.39T711.26,173a165.53,165.53,0,0,1-2,17,80,80,0,0,1-4.19,15.59,34.47,34.47,0,0,1-7,11.49,14,14,0,0,1-10.48,4.47,18.23,18.23,0,0,1-9.48-2.28,19.53,19.53,0,0,1-6.29-5.93,36.84,36.84,0,0,1-4.1-8.2q-1.64-4.56-2.92-8.93-.92,2.19-2.1,4.74a39.19,39.19,0,0,1-2.73,4.92,49.88,49.88,0,0,1-3.28,4.47,12.12,12.12,0,0,1-3.92,3.19l.18-.36a10.2,10.2,0,0,1-6.38,1.82q-9.48,0-14.59-4.83a28.54,28.54,0,0,1-7.48-11.94,58.41,58.41,0,0,1-2.82-15.31q-.46-8.2-.46-14.95V155.18q0-6.38.36-12.76v1.09a10.77,10.77,0,0,1,.18-1.91q.18-1,.37-1.91v.36l.55-2.92v.18a7,7,0,0,1,.73-2c.24-.36.91-.55,2-.55a14.93,14.93,0,0,1,3.37.45,19.48,19.48,0,0,1,3.83,1.37,16.89,16.89,0,0,1,3.37,2.1,6.69,6.69,0,0,1,2,2.46,41.9,41.9,0,0,1,3.19,14.13q.45,7.75.46,16t.09,16.41a58.54,58.54,0,0,0,2.1,15.31,35,35,0,0,0,8-11.39,118.28,118.28,0,0,0,5.38-14.31q2.28-7.47,4.19-14.95t4.1-13.67q.91-.36,1.91-.73a5.6,5.6,0,0,1,1.91-.36,10.72,10.72,0,0,1,5.19,1.46,10.57,10.57,0,0,1,3.92,3.46q1.28,2,1.73,9t1,15.59q.55,8.57,1.55,17.23a48.14,48.14,0,0,0,3.37,13.95,26.83,26.83,0,0,0,6.93-9A64.13,64.13,0,0,0,697.5,187a99.09,99.09,0,0,0,2.55-14q.82-7.38,1.09-14.58t.28-13.86V132.76l1.09-1.28h1.1a8.47,8.47,0,0,1,4.56,1.37,16.63,16.63,0,0,1,3.65,3Zm-82,57.61a85.4,85.4,0,0,1-3.46-14.4,131.82,131.82,0,0,1-1.37-14.68q-.27-7.38-.09-14.77t.18-14.86H625q-.37,3.1-1,6.11a30.05,30.05,0,0,0-.64,6.29v8q0,1.82.27,6.2t.82,9.39q.55,5,1.1,9.48a50.72,50.72,0,0,0,1.09,6.47,14,14,0,0,1,.55,1.46c.24.73.55,1.52.91,2.37s.7,1.58,1,2.19.57.91.82.91Zm-4.56-36.46c0,.61.06,1.55.18,2.83s.3,2.58.55,3.92.48,2.55.73,3.65a4.64,4.64,0,0,0,.91,2.19h.18l-.18-.36v-.18l-.18-1.09-.18-.18q-.37-5.47-.45-10.39t-.09-10.39c0-.48-.12-.61-.36-.36q-.37,1.82-.73,3.83a22.23,22.23,0,0,0-.37,4ZM665,163l-.18.18a167.16,167.16,0,0,1-5.19,17.23,157.1,157.1,0,0,1-7.2,16.68q-.18.37-1.09,2.46a11.65,11.65,0,0,0-.91,2.46h.18l1.28-2.73q1.82-3.83,4.1-8.29t4.28-9.12a81.67,81.67,0,0,0,3.37-9.3,31.89,31.89,0,0,0,1.37-9Zm20.42,48.49L684,209.79a4.29,4.29,0,0,1-.82-2.1v-.91c0-.48-.12-.73-.37-.73l-.18.36v1.64a3.34,3.34,0,0,0,1,2.46l1.91,1.91,1.28.18,1.09-.36h-.73A3.53,3.53,0,0,1,685.38,211.52ZM706,147.89a67.13,67.13,0,0,0-1.55,9.3q-.46,4.74-.82,9.48t-1,9.48a54.13,54.13,0,0,1-2.09,9.3L697,196.39l-1.46,4.38-.73,2.19v.18c.24,0,.55-.57.91-1.73a22.06,22.06,0,0,1,.73-2.1,260.06,260.06,0,0,0,7-25.34,121.6,121.6,0,0,0,2.64-26.07Zm.55,27.17q-.19,0-.55,1.37a9.3,9.3,0,0,0-.36,1.73v2.55l.18.18c.24,0,.33-.12.27-.36A2.28,2.28,0,0,1,706,180q.18-.91.46-1.82a5.73,5.73,0,0,0,.27-1.64v-1.28Z" transform="translate(-76.65 -87.91)"/></svg>