<?xml version="1.0" encoding="UTF-8" standalone="no"?>
<!-- Created with Inkscape (http://www.inkscape.org/) -->

<svg
   xmlns:dc="http://purl.org/dc/elements/1.1/"
   xmlns:cc="http://creativecommons.org/ns#"
   xmlns:rdf="http://www.w3.org/1999/02/22-rdf-syntax-ns#"
   xmlns:svg="http://www.w3.org/2000/svg"
   xmlns="http://www.w3.org/2000/svg"
   xmlns:sodipodi="http://sodipodi.sourceforge.net/DTD/sodipodi-0.dtd"
   xmlns:inkscape="http://www.inkscape.org/namespaces/inkscape"
   width="93.5mm"
   height="57.968594mm"
   viewBox="0 0 93.499998 57.968592"
   version="1.1"
   id="svg8"
   sodipodi:docname="meowmeow_mini.svg"
   inkscape:version="0.92.2 5c3e80d, 2017-08-06">
  <sodipodi:namedview
     id="base"
     pagecolor="#ffffff"
     bordercolor="#666666"
     borderopacity="1.0"
     inkscape:pageopacity="0.0"
     inkscape:pageshadow="2"
     inkscape:zoom="1.26"
     inkscape:cx="356.8153"
     inkscape:cy="251.40473"
     inkscape:document-units="mm"
     inkscape:current-layer="layer2"
     showgrid="true"
     inkscape:snap-global="false"
     inkscape:window-width="1680"
     inkscape:window-height="925"
     inkscape:window-x="0"
     inkscape:window-y="1"
     inkscape:window-maximized="1"
     showguides="true"
     inkscape:guide-bbox="true"
     fit-margin-top="0"
     fit-margin-left="0"
     fit-margin-right="0"
     fit-margin-bottom="0"
     borderlayer="true">
    <sodipodi:guide
       inkscape:locked="false"
       id="guide2416"
       orientation="1,0"
       position="-127.24528,1.3507404" />
    <inkscape:grid
       id="grid42"
       units="mm"
       type="xygrid"
       empspacing="1"
       spacingy="2.54"
       spacingx="2.54"
       originx="-8.581539e-07"
       originy="15.98265" />
  </sodipodi:namedview>
  <defs
     id="defs2">
    <clipPath
       clipPathUnits="userSpaceOnUse"
       id="clipPath50">
      <path
         d="M 0,1224 H 792 V 0 H 0 Z"
         id="path48"
         inkscape:connector-curvature="0" />
    </clipPath>
    <clipPath
       clipPathUnits="userSpaceOnUse"
       id="clipPath1730">
      <path
         d="M 0,1224 H 792 V 0 H 0 Z"
         id="path1728"
         inkscape:connector-curvature="0" />
    </clipPath>
  </defs>
  <metadata
     id="metadata5">
    <rdf:RDF>
      <cc:Work
         rdf:about="">
        <dc:format>image/svg+xml</dc:format>
        <dc:type
           rdf:resource="http://purl.org/dc/dcmitype/StillImage" />
        <dc:title></dc:title>
      </cc:Work>
    </rdf:RDF>
  </metadata>
  <g
     transform="translate(-11.584567,-89.084027)"
     style="display:none"
     id="layer1"
     inkscape:groupmode="layer"
     inkscape:label="Cu">
    <g
       transform="matrix(0.4918608,0,0,0.4918608,-174.91615,-107.31898)"
       id="g2372" />
  </g>
  <g
     transform="translate(-11.584567,-89.084027)"
     style="display:inline"
     inkscape:label="Extras"
     id="layer6"
     inkscape:groupmode="layer">
    <path
       inkscape:connector-curvature="0"
       id="path2154"
       style="display:inline;fill:none;stroke:#373435;stroke-width:0.24990201;stroke-linecap:butt;stroke-linejoin:miter;stroke-miterlimit:22.92558479;stroke-dasharray:none;stroke-opacity:1"
       d="m 95.876746,116.53199 c 1.073629,0 1.943942,0.8703 1.943942,1.94393 0,1.07362 -0.870313,1.94394 -1.943942,1.94394 -1.073629,0 -1.943943,-0.87032 -1.943943,-1.94394 0,-1.07363 0.870314,-1.94393 1.943943,-1.94393 z" />
    <path
       inkscape:connector-curvature="0"
       id="path2152"
       style="display:inline;fill:none;stroke:#373435;stroke-width:0.24990201;stroke-linecap:butt;stroke-linejoin:miter;stroke-miterlimit:22.92558479;stroke-dasharray:none;stroke-opacity:1"
       d="m 98.521559,126.688 c 1.073629,0 1.943941,0.8703 1.943941,1.94393 0,1.07363 -0.870312,1.94394 -1.943941,1.94394 -1.073629,0 -1.943943,-0.87031 -1.943943,-1.94394 0,-1.07363 0.870314,-1.94393 1.943943,-1.94393 z" />
    <g
       style="display:inline;stroke-width:1.41732287;stroke-miterlimit:22.92558479;stroke-dasharray:none"
       transform="matrix(0.17631975,0,0,-0.17631975,11.790968,207.21697)"
       id="g2164">
      <path
         inkscape:connector-curvature="0"
         id="path2166"
         style="fill:none;stroke:#373435;stroke-width:1.41732287;stroke-linecap:butt;stroke-linejoin:miter;stroke-miterlimit:22.92558479;stroke-dasharray:none;stroke-opacity:1"
         d="m 383.1418,407.8213 c 6.0891,0 11.025,-4.9359 11.025,-11.025 0,-6.0892 -4.9359,-11.0251 -11.025,-11.0251 -6.0891,0 -11.0251,4.9359 -11.0251,11.0251 0,6.0891 4.936,11.025 11.0251,11.025 z" />
      <path
         inkscape:connector-curvature="0"
         id="path2168"
         style="fill:none;stroke:#373435;stroke-width:1.41732287;stroke-linecap:butt;stroke-linejoin:miter;stroke-miterlimit:22.92558479;stroke-dasharray:none;stroke-opacity:1"
         d="m 415.9922,529.0209 c 6.0891,0 11.0251,-4.936 11.0251,-11.0251 0,-6.0891 -4.936,-11.0251 -11.0251,-11.0251 -6.0891,0 -11.0251,4.936 -11.0251,11.0251 0,6.0891 4.936,11.0251 11.0251,11.0251 z" />
    </g>
    <g
       style="display:inline;stroke-width:1.41732287;stroke-miterlimit:22.92558479;stroke-dasharray:none"
       transform="matrix(0.17631975,0,0,-0.17631975,11.790968,207.21697)"
       id="g2170">
      <path
         inkscape:connector-curvature="0"
         id="path2172"
         style="fill:none;stroke:#373435;stroke-width:1.41732287;stroke-linecap:butt;stroke-linejoin:miter;stroke-miterlimit:22.92558479;stroke-dasharray:none;stroke-opacity:1"
         d="m 145.3915,407.8213 c -6.0891,0 -11.025,-4.9359 -11.025,-11.025 0,-6.0892 4.9359,-11.0251 11.025,-11.0251 6.0891,0 11.0251,4.9359 11.0251,11.0251 0,6.0891 -4.936,11.025 -11.0251,11.025 z" />
      <path
         inkscape:connector-curvature="0"
         id="path2174"
         style="fill:none;stroke:#373435;stroke-width:1.41732287;stroke-linecap:butt;stroke-linejoin:miter;stroke-miterlimit:22.92558479;stroke-dasharray:none;stroke-opacity:1"
         d="m 112.5411,529.0209 c -6.0891,0 -11.0251,-4.936 -11.0251,-11.0251 0,-6.0891 4.936,-11.0251 11.0251,-11.0251 6.0891,0 11.0251,4.936 11.0251,11.0251 0,6.0891 -4.936,11.0251 -11.0251,11.0251 z" />
    </g>
    <g
       style="display:inline;stroke-width:1.41732287;stroke-miterlimit:22.92558479;stroke-dasharray:none"
       transform="matrix(0.17631975,0,0,-0.17631975,11.790968,207.21697)"
       id="g2156">
      <path
         inkscape:connector-curvature="0"
         id="path2158"
         style="fill:none;stroke:#373435;stroke-width:1.41732287;stroke-linecap:butt;stroke-linejoin:miter;stroke-miterlimit:22.92558479;stroke-dasharray:none;stroke-opacity:1"
         d="m 51.3575,399.0467 c -6.0891,0 -11.025,-4.936 -11.025,-11.0251 0,-6.0891 4.9359,-11.0251 11.025,-11.0251 6.0891,0 11.0251,4.936 11.0251,11.0251 0,6.0891 -4.936,11.0251 -11.0251,11.0251 z" />
      <path
         inkscape:connector-curvature="0"
         id="path2160"
         style="fill:none;stroke:#373435;stroke-width:1.41732287;stroke-linecap:butt;stroke-linejoin:miter;stroke-miterlimit:22.92558479;stroke-dasharray:none;stroke-opacity:1"
         d="m 36.358,456.7212 c -6.0891,0 -11.0251,-4.9359 -11.0251,-11.025 0,-6.0891 4.936,-11.0251 11.0251,-11.0251 6.0891,0 11.0251,4.936 11.0251,11.0251 0,6.0891 -4.936,11.025 -11.0251,11.025 z" />
      <path
         inkscape:connector-curvature="0"
         id="path2162"
         style="fill:none;stroke:#373435;stroke-width:1.41732287;stroke-linecap:butt;stroke-linejoin:miter;stroke-miterlimit:22.92558479;stroke-dasharray:none;stroke-opacity:1"
         d="m 51.3581,514.3212 c -6.0891,0 -11.0251,-4.9359 -11.0251,-11.025 0,-6.0891 4.936,-11.0251 11.0251,-11.0251 6.0891,0 11.0251,4.936 11.0251,11.0251 0,6.0891 -4.936,11.025 -11.0251,11.025 z" />
    </g>
    <path
       inkscape:connector-curvature="0"
       id="path2150"
       style="display:inline;fill:none;stroke:#373435;stroke-width:0.24990201;stroke-linecap:butt;stroke-linejoin:miter;stroke-miterlimit:22.92558479;stroke-dasharray:none;stroke-opacity:1"
       d="m 95.876851,136.85716 c 1.073629,0 1.943922,0.87032 1.943922,1.94394 0,1.07363 -0.870293,1.94395 -1.943922,1.94395 -1.073629,0 -1.943943,-0.87032 -1.943943,-1.94395 0,-1.07362 0.870314,-1.94394 1.943943,-1.94394 z" />
  </g>
  <g
     id="g73"
     sodipodi:insensitive="true"
     inkscape:groupmode="layer"
     inkscape:label="[fixed] BG"
     style="display:none"
     transform="translate(-8.5815393e-7,-58.014053)">
    <rect
       id="rect71"
       style="fill:#ffffff;fill-opacity:1;stroke:none"
       height="100"
       width="100"
       y="0"
       x="0" />
  </g>
  <g
     id="g75"
     inkscape:groupmode="layer"
     inkscape:label="F.Cu"
     transform="translate(-8.5815393e-7,-58.014053)" />
  <g
     id="g77"
     inkscape:groupmode="layer"
     inkscape:label="B.Cu-disabled"
     transform="translate(-8.5815393e-7,-58.014053)" />
  <g
     id="g79"
     inkscape:groupmode="layer"
     inkscape:label="B.Adhes-disabled"
     transform="translate(-8.5815393e-7,-58.014053)" />
  <g
     id="g81"
     inkscape:groupmode="layer"
     inkscape:label="F.Adhes-disabled"
     transform="translate(-8.5815393e-7,-58.014053)" />
  <g
     id="g83"
     inkscape:groupmode="layer"
     inkscape:label="B.Paste-disabled"
     transform="translate(-8.5815393e-7,-58.014053)" />
  <g
     id="g85"
     inkscape:groupmode="layer"
     inkscape:label="F.Paste-disabled"
     transform="translate(-8.5815393e-7,-58.014053)" />
  <g
     id="g87"
     inkscape:groupmode="layer"
     inkscape:label="B.SilkS-disabled"
     transform="translate(-8.5815393e-7,-58.014053)" />
  <g
     id="g89"
     inkscape:groupmode="layer"
     inkscape:label="F.SilkS-disabled"
     transform="translate(-8.5815393e-7,-58.014053)" />
  <g
     id="g91"
     inkscape:groupmode="layer"
     inkscape:label="B.Mask-disabled"
     transform="translate(-8.5815393e-7,-58.014053)" />
  <g
     id="g93"
     inkscape:groupmode="layer"
     inkscape:label="F.Mask-disabled"
     transform="translate(-8.5815393e-7,-58.014053)" />
  <g
     id="g95"
     inkscape:groupmode="layer"
     inkscape:label="Dwgs.User-disabled"
     transform="translate(-8.5815393e-7,-58.014053)" />
  <g
     id="g97"
     inkscape:groupmode="layer"
     inkscape:label="Cmts.User-disabled"
     transform="translate(-8.5815393e-7,-58.014053)" />
  <g
     id="g99"
     inkscape:groupmode="layer"
     inkscape:label="Eco1.User-disabled"
     transform="translate(-8.5815393e-7,-58.014053)" />
  <g
     id="g101"
     inkscape:groupmode="layer"
     inkscape:label="Eco2.User-disabled"
     transform="translate(-8.5815393e-7,-58.014053)" />
  <g
     id="g103"
     inkscape:groupmode="layer"
     inkscape:label="Margin-disabled"
     transform="translate(-8.5815393e-7,-58.014053)" />
  <g
     id="g105"
     inkscape:groupmode="layer"
     inkscape:label="B.CrtYd-disabled"
     transform="translate(-8.5815393e-7,-58.014053)" />
  <g
     id="g107"
     inkscape:groupmode="layer"
     inkscape:label="F.CrtYd-disabled"
     transform="translate(-8.5815393e-7,-58.014053)" />
  <g
     id="g109"
     inkscape:groupmode="layer"
     inkscape:label="B.Fab-disabled"
     transform="translate(-8.5815393e-7,-58.014053)" />
  <g
     id="g111"
     inkscape:groupmode="layer"
     inkscape:label="F.Fab-disabled"
     transform="translate(-8.5815393e-7,-58.014053)" />
  <g
     id="g113"
     inkscape:groupmode="layer"
     inkscape:label="Drill"
     transform="translate(-8.5815393e-7,-58.014053)" />
  <g
     transform="translate(-11.584567,-89.084027)"
     style="display:inline"
     inkscape:label="F.SilkS"
     id="layer2"
     inkscape:groupmode="layer">
    <path
       inkscape:connector-curvature="0"
       id="path2148"
       style="display:inline;fill:none;stroke:#373435;stroke-width:1.24951005;stroke-linecap:butt;stroke-linejoin:miter;stroke-miterlimit:22.92558479;stroke-dasharray:none;stroke-opacity:1"
       d="m 95.962012,129.97221 c 0.473015,0.91769 1.412336,1.55759 2.508362,1.58832 1.607576,0.045 2.951746,-1.23676 2.996426,-2.85731 0.0447,-1.62058 -1.22681,-2.97564 -2.834335,-3.02073 -1.096075,-0.0307 -2.069239,0.55574 -2.591989,1.44538 l -10.044761,-0.28148 c 0.197073,-0.74331 0.340122,-1.50051 0.423539,-2.27006 l 7.754559,-3.65366 c 0.83087,0.60636 1.955174,0.7538 2.948539,0.28578 1.456879,-0.68643 2.088226,-2.43979 1.407298,-3.90852 -0.680928,-1.46867 -2.420146,-2.10511 -3.877024,-1.41868 -0.993316,0.468 -1.602377,1.43203 -1.673889,2.46368 l -6.549382,3.08579 c -0.273403,-2.71829 -1.2737,-5.28952 -2.863292,-7.61053 0.834733,-6.21571 3.687869,-19.234757 -0.06192,-20.923739 -3.386717,-1.525502 -11.859904,5.794872 -15.973531,10.673469 -2.88223,-0.72362 -5.975707,-1.11766 -9.196044,-1.11766 -3.220337,0 -6.313779,0.39404 -9.196044,1.11766 -4.113647,-4.878597 -12.410479,-12.198971 -15.797211,-10.673469 -3.749774,1.688982 -1.072974,14.708079 -0.238261,20.923739 -1.589572,2.32101 -2.58987,4.89229 -2.863217,7.61053 l -6.549432,-3.08579 c -0.07152,-1.03165 -0.680528,-1.99568 -1.673839,-2.46368 -1.456934,-0.68643 -3.196152,-0.05 -3.87708,1.41868 -0.680893,1.46873 -0.04953,3.22209 1.407299,3.90852 0.99335,0.46802 2.117669,0.32058 2.948593,-0.28578 l 7.754505,3.65366 c 0.08342,0.76955 0.226466,1.52675 0.423539,2.27006 l -10.044722,0.28148 c -0.52279,-0.88964 -1.495953,-1.47606 -2.592023,-1.44538 -1.607525,0.0451 -2.879021,1.40015 -2.834344,3.02073 0.04468,1.62055 1.388856,2.90236 2.99643,2.85731 1.096025,-0.0307 2.035402,-0.67063 2.508362,-1.58832 l 11.005489,-0.30842 c 0.30703,0.64364 0.657038,1.27259 1.047374,1.8853 l -10.26461,4.83626 c -0.830924,-0.60632 -1.955243,-0.75381 -2.948593,-0.28573 -1.456824,0.68643 -2.088192,2.43974 -1.407299,3.90846 0.680928,1.46873 2.420146,2.10512 3.87708,1.41869 0.993311,-0.46801 1.602322,-1.43198 1.673839,-2.46368 l 10.807712,-5.0921 c 4.990498,5.74719 13.799944,9.56505 23.836453,9.56505 10.036509,0 18.845955,-3.81786 23.836453,-9.56505 l 10.807717,5.0921 c 0.07151,1.0317 0.680573,1.99567 1.673889,2.46368 1.456878,0.68643 3.196096,0.05 3.877024,-1.41869 0.680928,-1.46872 0.04958,-3.22203 -1.407298,-3.90846 -0.993365,-0.46808 -2.117669,-0.32059 -2.948539,0.28573 l -10.264685,-4.83626 c 0.390357,-0.61271 0.74037,-1.24166 1.047445,-1.8853 z" />
    <path
       inkscape:connector-curvature="0"
       id="path2182"
       style="display:inline;fill:#373435;fill-opacity:1;fill-rule:evenodd;stroke:none;stroke-width:0.24990201;stroke-miterlimit:22.92558479;stroke-dasharray:none"
       d="m 66.528199,117.76679 c -3.662354,3.69191 -2.991177,10.35614 -2.991177,10.35614 0,0 6.610617,0.67719 10.273021,-3.01486 3.663114,-3.69201 2.990738,-10.35694 2.990738,-10.35694 0,0 -6.610613,-0.67647 -10.272582,3.01566" />
    <path
       inkscape:connector-curvature="0"
       id="path2180"
       style="display:inline;fill:#373435;fill-opacity:1;fill-rule:evenodd;stroke:none;stroke-width:0.24990201;stroke-miterlimit:22.92558479;stroke-dasharray:none"
       d="m 50.141185,117.7667 c -3.662464,-3.69204 -10.272887,-3.01566 -10.272887,-3.01566 0,0 -0.672076,6.66368 2.990387,10.35703 3.662459,3.69205 10.273427,3.01486 10.273427,3.01486 0,0 0.671972,-6.66423 -2.990927,-10.35623" />
  </g>
  <g
     transform="translate(-11.584567,-89.084027)"
     style="display:inline"
     inkscape:label="F.Mask"
     id="layer5"
     inkscape:groupmode="layer" />
  <g
     transform="translate(-11.584567,-89.084027)"
     style="display:inline"
     inkscape:label="Edge.Cuts"
     id="layer3"
     inkscape:groupmode="layer">
    <path
       inkscape:connector-curvature="0"
       id="path2178"
       style="fill:none;stroke:#373435;stroke-width:0.24990201;stroke-linecap:butt;stroke-linejoin:miter;stroke-miterlimit:22.92558479;stroke-dasharray:none;stroke-opacity:1"
       d="m 47.37501,104.74956 c 0,0 -4.919271,1.00504 -8.040148,3.33245 -3.120876,2.32738 -4.226083,3.41856 -4.226083,3.41856 0,0 -4.01443,-14.972283 -0.270054,-16.325203 3.744382,-1.352919 12.536285,9.574193 12.536285,9.574193 z" />
    <path
       inkscape:connector-curvature="0"
       id="path2176"
       style="fill:none;stroke:#373435;stroke-width:0.24990201;stroke-linecap:butt;stroke-linejoin:miter;stroke-miterlimit:22.92558479;stroke-dasharray:none;stroke-opacity:1"
       d="m 69.798067,104.74956 c 0,0 4.919266,1.00504 8.040142,3.33245 3.120881,2.32738 4.226103,3.41856 4.226103,3.41856 0,0 4.014431,-14.972283 0.270034,-16.325203 -3.744377,-1.352919 -12.536279,9.574193 -12.536279,9.574193 z" />
    <path
       inkscape:connector-curvature="0"
       id="path2146"
       style="display:inline;fill:none;stroke:#373435;stroke-width:0.44982362;stroke-linecap:butt;stroke-linejoin:miter;stroke-miterlimit:22.92558479;stroke-dasharray:none;stroke-opacity:1"
       d="m 66.323084,99.826538 c 1.832037,-1.97598 3.863325,-3.882522 5.932969,-5.55867 3.077093,-2.492068 8.499367,-6.329368 12.640998,-4.463855 2.860678,1.288495 3.666407,4.465704 3.841899,7.319335 0.172177,2.799852 -0.136597,5.672472 -0.502319,8.447442 -0.32961,2.50131 -0.771432,4.98539 -1.137294,7.48111 0.669183,1.12171 1.232772,2.3002 1.674649,3.52488 l 1.368963,-0.64502 c 0.613944,-1.36096 1.693321,-2.47287 3.064049,-3.11867 3.158661,-1.48832 6.932772,-0.10375 8.399692,3.06021 1.07134,2.31079 0.62726,4.95694 -0.92698,6.78747 2.49923,0.9023 4.25447,3.34299 4.17751,6.13595 -0.0741,2.68635 -1.82269,4.95307 -4.22055,5.80037 1.58903,1.83214 2.05114,4.50564 0.97002,6.83758 -1.46692,3.16406 -5.241031,4.54857 -8.399692,3.06026 -1.371273,-0.64606 -2.45035,-1.75818 -3.064049,-3.1187 l -7.219079,-3.40126 c -6.454409,6.07327 -15.876765,8.85274 -24.589303,8.85274 -8.712538,0 -18.134889,-2.77947 -24.589303,-8.85274 l -7.219079,3.40126 c -0.6137,1.36052 -1.692776,2.47264 -3.064049,3.1187 -3.158696,1.48831 -6.932821,0.10374 -8.399751,-3.06032 -1.081121,-2.33188 -0.618917,-5.00538 0.970115,-6.83752 -2.3979,-0.84726 -4.146514,-3.11396 -4.220585,-5.80037 -0.07698,-2.79296 1.678281,-5.23365 4.177507,-6.13595 -1.554241,-1.83053 -1.998267,-4.47668 -0.926982,-6.78737 1.466875,-3.16402 5.241,-4.54858 8.399696,-3.06031 1.371273,0.64605 2.450349,1.75817 3.064049,3.11867 l 1.369018,0.64502 c 0.442122,-1.22543 1.00615,-2.40467 1.675848,-3.52698 -0.361263,-2.50617 -0.781993,-5.00328 -1.089588,-7.51725 -0.339802,-2.77687 -0.616798,-5.652533 -0.414117,-8.448981 0.205849,-2.840441 1.037038,-5.998558 3.881058,-7.279556 4.145879,-1.867472 9.516278,1.983932 12.573819,4.495433 2.037516,1.673608 4.024322,3.566011 5.829025,5.526088 2.627519,-0.514199 5.306364,-0.764945 7.983319,-0.764945 2.678704,0 5.359293,0.251096 7.988517,0.765949 z" />
  </g>
</svg>
