<?xml version="1.0" encoding="UTF-8" standalone="no"?>
<!-- Created with Inkscape (http://www.inkscape.org/) -->

<svg
   xmlns:dc="http://purl.org/dc/elements/1.1/"
   xmlns:cc="http://creativecommons.org/ns#"
   xmlns:rdf="http://www.w3.org/1999/02/22-rdf-syntax-ns#"
   xmlns:svg="http://www.w3.org/2000/svg"
   xmlns="http://www.w3.org/2000/svg"
   xmlns:sodipodi="http://sodipodi.sourceforge.net/DTD/sodipodi-0.dtd"
   xmlns:inkscape="http://www.inkscape.org/namespaces/inkscape"
   inkscape:version="0.92.2 5c3e80d, 2017-08-06"
   sodipodi:docname="meowmeow_mini.svg"
   id="svg8"
   version="1.1"
   viewBox="0 0 73.495016 45.566642"
   height="45.566643mm"
   width="73.495018mm">
  <sodipodi:namedview
     borderlayer="true"
     fit-margin-bottom="0"
     fit-margin-right="0"
     fit-margin-left="0"
     fit-margin-top="0"
     inkscape:guide-bbox="true"
     showguides="true"
     inkscape:window-maximized="1"
     inkscape:window-y="1"
     inkscape:window-x="0"
     inkscape:window-height="925"
     inkscape:window-width="1680"
     inkscape:snap-global="false"
     showgrid="true"
     inkscape:current-layer="svg8"
     inkscape:document-units="mm"
     inkscape:cy="251.39773"
     inkscape:cx="356.79571"
     inkscape:zoom="1.26"
     inkscape:pageshadow="2"
     inkscape:pageopacity="0.0"
     borderopacity="1.0"
     bordercolor="#666666"
     pagecolor="#ffffff"
     id="base">
    <sodipodi:guide
       inkscape:locked="false"
       id="guide2416"
       orientation="1,0"
       position="-127.24786,1.3495468" />
    <inkscape:grid
       id="grid42"
       units="mm"
       type="xygrid"
       empspacing="1"
       spacingy="2.54"
       spacingx="2.54"
       originx="-0.0025780555"
       originy="15.981456" />
  </sodipodi:namedview>
  <defs
     id="defs2">
    <clipPath
       clipPathUnits="userSpaceOnUse"
       id="clipPath50">
      <path
         d="M 0,1224 H 792 V 0 H 0 Z"
         id="path48"
         inkscape:connector-curvature="0" />
    </clipPath>
    <clipPath
       clipPathUnits="userSpaceOnUse"
       id="clipPath1730">
      <path
         d="M 0,1224 H 792 V 0 H 0 Z"
         id="path1728"
         inkscape:connector-curvature="0" />
    </clipPath>
  </defs>
  <metadata
     id="metadata5">
    <rdf:RDF>
      <cc:Work
         rdf:about="">
        <dc:format>image/svg+xml</dc:format>
        <dc:type
           rdf:resource="http://purl.org/dc/dcmitype/StillImage" />
        <dc:title></dc:title>
      </cc:Work>
    </rdf:RDF>
  </metadata>
  <g
     transform="translate(-11.587144,-101.48478)"
     style="display:none"
     id="layer1"
     inkscape:groupmode="layer"
     inkscape:label="Cu">
    <g
       transform="matrix(0.4918608,0,0,0.4918608,-174.91615,-107.31898)"
       id="g2372" />
  </g>
  <g
     transform="translate(-11.587144,-101.48478)"
     style="display:none"
     inkscape:label="Extras"
     id="layer6"
     inkscape:groupmode="layer">
    <path
       inkscape:connector-curvature="0"
       id="path2154"
       style="display:inline;fill:none;stroke:#373435;stroke-width:0.24990201;stroke-linecap:butt;stroke-linejoin:miter;stroke-miterlimit:22.92558479;stroke-dasharray:none;stroke-opacity:1"
       d="m 95.876746,116.53199 c 1.073629,0 1.943942,0.8703 1.943942,1.94393 0,1.07362 -0.870313,1.94394 -1.943942,1.94394 -1.073629,0 -1.943943,-0.87032 -1.943943,-1.94394 0,-1.07363 0.870314,-1.94393 1.943943,-1.94393 z" />
    <path
       inkscape:connector-curvature="0"
       id="path2152"
       style="display:inline;fill:none;stroke:#373435;stroke-width:0.24990201;stroke-linecap:butt;stroke-linejoin:miter;stroke-miterlimit:22.92558479;stroke-dasharray:none;stroke-opacity:1"
       d="m 98.521559,126.688 c 1.073629,0 1.943941,0.8703 1.943941,1.94393 0,1.07363 -0.870312,1.94394 -1.943941,1.94394 -1.073629,0 -1.943943,-0.87031 -1.943943,-1.94394 0,-1.07363 0.870314,-1.94393 1.943943,-1.94393 z" />
    <g
       style="display:inline;stroke-width:1.41732287;stroke-miterlimit:22.92558479;stroke-dasharray:none"
       transform="matrix(0.17631975,0,0,-0.17631975,11.790968,207.21697)"
       id="g2164">
      <path
         inkscape:connector-curvature="0"
         id="path2166"
         style="fill:none;stroke:#373435;stroke-width:1.41732287;stroke-linecap:butt;stroke-linejoin:miter;stroke-miterlimit:22.92558479;stroke-dasharray:none;stroke-opacity:1"
         d="m 383.1418,407.8213 c 6.0891,0 11.025,-4.9359 11.025,-11.025 0,-6.0892 -4.9359,-11.0251 -11.025,-11.0251 -6.0891,0 -11.0251,4.9359 -11.0251,11.0251 0,6.0891 4.936,11.025 11.0251,11.025 z" />
      <path
         inkscape:connector-curvature="0"
         id="path2168"
         style="fill:none;stroke:#373435;stroke-width:1.41732287;stroke-linecap:butt;stroke-linejoin:miter;stroke-miterlimit:22.92558479;stroke-dasharray:none;stroke-opacity:1"
         d="m 415.9922,529.0209 c 6.0891,0 11.0251,-4.936 11.0251,-11.0251 0,-6.0891 -4.936,-11.0251 -11.0251,-11.0251 -6.0891,0 -11.0251,4.936 -11.0251,11.0251 0,6.0891 4.936,11.0251 11.0251,11.0251 z" />
    </g>
    <g
       style="display:inline;stroke-width:1.41732287;stroke-miterlimit:22.92558479;stroke-dasharray:none"
       transform="matrix(0.17631975,0,0,-0.17631975,11.790968,207.21697)"
       id="g2170">
      <path
         inkscape:connector-curvature="0"
         id="path2172"
         style="fill:none;stroke:#373435;stroke-width:1.41732287;stroke-linecap:butt;stroke-linejoin:miter;stroke-miterlimit:22.92558479;stroke-dasharray:none;stroke-opacity:1"
         d="m 145.3915,407.8213 c -6.0891,0 -11.025,-4.9359 -11.025,-11.025 0,-6.0892 4.9359,-11.0251 11.025,-11.0251 6.0891,0 11.0251,4.9359 11.0251,11.0251 0,6.0891 -4.936,11.025 -11.0251,11.025 z" />
      <path
         inkscape:connector-curvature="0"
         id="path2174"
         style="fill:none;stroke:#373435;stroke-width:1.41732287;stroke-linecap:butt;stroke-linejoin:miter;stroke-miterlimit:22.92558479;stroke-dasharray:none;stroke-opacity:1"
         d="m 112.5411,529.0209 c -6.0891,0 -11.0251,-4.936 -11.0251,-11.0251 0,-6.0891 4.936,-11.0251 11.0251,-11.0251 6.0891,0 11.0251,4.936 11.0251,11.0251 0,6.0891 -4.936,11.0251 -11.0251,11.0251 z" />
    </g>
    <g
       style="display:inline;stroke-width:1.41732287;stroke-miterlimit:22.92558479;stroke-dasharray:none"
       transform="matrix(0.17631975,0,0,-0.17631975,11.790968,207.21697)"
       id="g2156">
      <path
         inkscape:connector-curvature="0"
         id="path2158"
         style="fill:none;stroke:#373435;stroke-width:1.41732287;stroke-linecap:butt;stroke-linejoin:miter;stroke-miterlimit:22.92558479;stroke-dasharray:none;stroke-opacity:1"
         d="m 51.3575,399.0467 c -6.0891,0 -11.025,-4.936 -11.025,-11.0251 0,-6.0891 4.9359,-11.0251 11.025,-11.0251 6.0891,0 11.0251,4.936 11.0251,11.0251 0,6.0891 -4.936,11.0251 -11.0251,11.0251 z" />
      <path
         inkscape:connector-curvature="0"
         id="path2160"
         style="fill:none;stroke:#373435;stroke-width:1.41732287;stroke-linecap:butt;stroke-linejoin:miter;stroke-miterlimit:22.92558479;stroke-dasharray:none;stroke-opacity:1"
         d="m 36.358,456.7212 c -6.0891,0 -11.0251,-4.9359 -11.0251,-11.025 0,-6.0891 4.936,-11.0251 11.0251,-11.0251 6.0891,0 11.0251,4.936 11.0251,11.0251 0,6.0891 -4.936,11.025 -11.0251,11.025 z" />
      <path
         inkscape:connector-curvature="0"
         id="path2162"
         style="fill:none;stroke:#373435;stroke-width:1.41732287;stroke-linecap:butt;stroke-linejoin:miter;stroke-miterlimit:22.92558479;stroke-dasharray:none;stroke-opacity:1"
         d="m 51.3581,514.3212 c -6.0891,0 -11.0251,-4.9359 -11.0251,-11.025 0,-6.0891 4.936,-11.0251 11.0251,-11.0251 6.0891,0 11.0251,4.936 11.0251,11.0251 0,6.0891 -4.936,11.025 -11.0251,11.025 z" />
    </g>
    <path
       inkscape:connector-curvature="0"
       id="path2150"
       style="display:inline;fill:none;stroke:#373435;stroke-width:0.24990201;stroke-linecap:butt;stroke-linejoin:miter;stroke-miterlimit:22.92558479;stroke-dasharray:none;stroke-opacity:1"
       d="m 95.876851,136.85716 c 1.073629,0 1.943922,0.87032 1.943922,1.94394 0,1.07363 -0.870293,1.94395 -1.943922,1.94395 -1.073629,0 -1.943943,-0.87032 -1.943943,-1.94395 0,-1.07362 0.870314,-1.94394 1.943943,-1.94394 z" />
  </g>
  <g
     id="g73"
     sodipodi:insensitive="true"
     inkscape:groupmode="layer"
     inkscape:label="[fixed] BG"
     style="display:none"
     transform="translate(-0.00257806,-70.414811)">
    <rect
       id="rect71"
       style="fill:#ffffff;fill-opacity:1;stroke:none"
       height="100"
       width="100"
       y="0"
       x="0" />
  </g>
  <g
     style="display:inline"
     id="g75"
     inkscape:groupmode="layer"
     inkscape:label="F.Cu"
     transform="translate(-0.00257806,-70.414811)" />
  <g
     id="g77"
     inkscape:groupmode="layer"
     inkscape:label="B.Cu-disabled"
     transform="translate(-0.00257806,-70.414811)" />
  <g
     id="g79"
     inkscape:groupmode="layer"
     inkscape:label="B.Adhes-disabled"
     transform="translate(-0.00257806,-70.414811)" />
  <g
     id="g81"
     inkscape:groupmode="layer"
     inkscape:label="F.Adhes-disabled"
     transform="translate(-0.00257806,-70.414811)" />
  <g
     id="g83"
     inkscape:groupmode="layer"
     inkscape:label="B.Paste-disabled"
     transform="translate(-0.00257806,-70.414811)" />
  <g
     id="g85"
     inkscape:groupmode="layer"
     inkscape:label="F.Paste-disabled"
     transform="translate(-0.00257806,-70.414811)" />
  <g
     id="g87"
     inkscape:groupmode="layer"
     inkscape:label="B.SilkS-disabled"
     transform="translate(-0.00257806,-70.414811)" />
  <g
     id="g89"
     inkscape:groupmode="layer"
     inkscape:label="F.SilkS-disabled"
     transform="translate(-0.00257806,-70.414811)" />
  <g
     id="g91"
     inkscape:groupmode="layer"
     inkscape:label="B.Mask-disabled"
     transform="translate(-0.00257806,-70.414811)" />
  <g
     id="g93"
     inkscape:groupmode="layer"
     inkscape:label="F.Mask-disabled"
     transform="translate(-0.00257806,-70.414811)" />
  <g
     id="g95"
     inkscape:groupmode="layer"
     inkscape:label="Dwgs.User-disabled"
     transform="translate(-0.00257806,-70.414811)" />
  <g
     id="g97"
     inkscape:groupmode="layer"
     inkscape:label="Cmts.User-disabled"
     transform="translate(-0.00257806,-70.414811)" />
  <g
     id="g99"
     inkscape:groupmode="layer"
     inkscape:label="Eco1.User-disabled"
     transform="translate(-0.00257806,-70.414811)" />
  <g
     id="g101"
     inkscape:groupmode="layer"
     inkscape:label="Eco2.User-disabled"
     transform="translate(-0.00257806,-70.414811)" />
  <g
     id="g103"
     inkscape:groupmode="layer"
     inkscape:label="Margin-disabled"
     transform="translate(-0.00257806,-70.414811)" />
  <g
     id="g105"
     inkscape:groupmode="layer"
     inkscape:label="B.CrtYd-disabled"
     transform="translate(-0.00257806,-70.414811)" />
  <g
     id="g107"
     inkscape:groupmode="layer"
     inkscape:label="F.CrtYd-disabled"
     transform="translate(-0.00257806,-70.414811)" />
  <g
     id="g109"
     inkscape:groupmode="layer"
     inkscape:label="B.Fab-disabled"
     transform="translate(-0.00257806,-70.414811)" />
  <g
     id="g111"
     inkscape:groupmode="layer"
     inkscape:label="F.Fab-disabled"
     transform="translate(-0.00257806,-70.414811)" />
  <g
     id="g113"
     inkscape:groupmode="layer"
     inkscape:label="Drill"
     transform="translate(-0.00257806,-70.414811)" />
  <g
     transform="translate(-11.587144,-101.48478)"
     style="display:inline"
     inkscape:label="F.SilkS"
     id="layer2"
     inkscape:groupmode="layer">
    <path
       inkscape:connector-curvature="0"
       id="path2148"
       style="display:inline;fill:none;stroke:#373435;stroke-width:0.98221827;stroke-linecap:butt;stroke-linejoin:miter;stroke-miterlimit:22.92558479;stroke-dasharray:none;stroke-opacity:1"
       d="m 77.912781,133.62579 c 0.371829,0.72138 1.110213,1.2244 1.97178,1.24855 1.263688,0.0354 2.320317,-0.97219 2.355439,-2.24608 0.03514,-1.27391 -0.964374,-2.3391 -2.228022,-2.37454 -0.861606,-0.0241 -1.626593,0.43685 -2.037518,1.13619 l -7.896013,-0.22127 c 0.154916,-0.5843 0.267364,-1.17953 0.332937,-1.78446 l 6.095725,-2.87207 c 0.653132,0.47664 1.536928,0.59254 2.317795,0.22464 1.145228,-0.53959 1.641519,-1.91787 1.106253,-3.07242 -0.535266,-1.15449 -1.902435,-1.65479 -3.047662,-1.1152 -0.780828,0.36789 -1.2596,1.1257 -1.315815,1.93666 l -5.148356,2.42568 c -0.214917,-2.1368 -1.001233,-4.158 -2.250784,-5.9825 0.656169,-4.88606 2.89897,-15.12011 -0.04867,-16.44779 -2.66224,-1.19917 -9.322866,4.55525 -12.556517,8.39023 -2.265671,-0.56883 -4.6974,-0.87857 -7.228851,-0.87857 -2.531451,0 -4.963152,0.30974 -7.228851,0.87857 -3.233667,-3.83498 -9.755663,-9.5894 -12.417915,-8.39023 -2.947632,1.32768 -0.843446,11.56177 -0.187292,16.44779 -1.249535,1.8245 -2.035852,3.84574 -2.250726,5.9825 l -5.148395,-2.42568 c -0.05622,-0.81096 -0.534951,-1.56877 -1.315776,-1.93666 -1.14527,-0.53959 -2.51244,-0.0393 -3.047705,1.1152 -0.535239,1.15455 -0.03893,2.53283 1.106253,3.07242 0.780855,0.3679 1.664663,0.252 2.317838,-0.22464 l 6.095682,2.87207 c 0.06557,0.60493 0.178021,1.20016 0.332937,1.78446 l -7.895982,0.22127 c -0.410957,-0.69934 -1.175943,-1.16031 -2.037545,-1.13619 -1.263647,0.0355 -2.263148,1.10063 -2.228029,2.37454 0.03512,1.27389 1.091756,2.2815 2.355442,2.24608 0.861567,-0.0241 1.599995,-0.52717 1.97178,-1.24855 l 8.651225,-0.24244 c 0.241351,0.50595 0.516486,1.00036 0.823322,1.482 l -8.068832,3.8017 c -0.653175,-0.47662 -1.536983,-0.59256 -2.317838,-0.22461 -1.145184,0.53959 -1.641492,1.91784 -1.106253,3.07238 0.535265,1.15454 1.902435,1.65479 3.047705,1.1152 0.780825,-0.36789 1.259558,-1.12565 1.315776,-1.93665 l 8.495756,-4.00281 c 3.922944,4.51776 10.847897,7.51892 18.737423,7.51892 7.889526,0 14.814479,-3.00116 18.737424,-7.51892 l 8.495759,4.00281 c 0.05621,0.811 0.534987,1.56876 1.315815,1.93665 1.145227,0.53959 2.512396,0.0393 3.047662,-1.1152 0.535265,-1.15454 0.03897,-2.53279 -1.106253,-3.07238 -0.780867,-0.36795 -1.664663,-0.25201 -2.317795,0.22461 l -8.068892,-3.8017 c 0.306853,-0.48164 0.581992,-0.97605 0.823379,-1.482 z" />
    <path
       inkscape:connector-curvature="0"
       id="path2182"
       style="display:inline;fill:#373435;fill-opacity:1;fill-rule:evenodd;stroke:none;stroke-width:0.19644365;stroke-miterlimit:22.92558479;stroke-dasharray:none"
       d="m 54.77537,124.03132 c -2.878913,2.90215 -2.351313,8.14078 -2.351313,8.14078 0,0 5.196492,0.53233 8.075444,-2.36992 2.879511,-2.90223 2.350968,-8.14142 2.350968,-8.14142 0,0 -5.196489,-0.53176 -8.075099,2.37056" />
    <path
       inkscape:connector-curvature="0"
       id="path2180"
       style="display:inline;fill:#373435;fill-opacity:1;fill-rule:evenodd;stroke:none;stroke-width:0.19644365;stroke-miterlimit:22.92558479;stroke-dasharray:none"
       d="m 41.893821,124.03125 c -2.878999,-2.90225 -8.075338,-2.37056 -8.075338,-2.37056 0,0 -0.528308,5.23821 2.350691,8.14149 2.878996,2.90225 8.075763,2.36992 8.075763,2.36992 0,0 0.528226,-5.23863 -2.351116,-8.14085" />
  </g>
  <g
     transform="translate(-11.587144,-101.48478)"
     style="display:inline"
     inkscape:label="F.Mask"
     id="layer5"
     inkscape:groupmode="layer" />
  <g
     transform="translate(-11.587144,-101.48478)"
     style="display:inline"
     inkscape:label="Edge.Cuts"
     id="layer3"
     inkscape:groupmode="layer">
    <path
       inkscape:connector-curvature="0"
       id="path2178"
       style="fill:none;stroke:#373435;stroke-width:0.19644365;stroke-linecap:butt;stroke-linejoin:miter;stroke-miterlimit:22.92558479;stroke-dasharray:none;stroke-opacity:1"
       d="M39.719379 113.7987L39.076835 113.95073L38.366479 114.14516L37.479244 114.42242L36.988635 114.59302L36.477011 114.78543L35.95211 115.00002L35.421664 115.23714L34.893411 115.49716L34.375086 115.78045L33.874423 116.08737L33.399158 116.41828L32.552058 117.05902L31.845115 117.60999L31.269944 118.07254L30.818157 118.44799L30.251187 118.94295L30.077107 119.10556L29.94726 118.59776L29.630023 117.24996L29.435025 116.34337L29.23385 115.32554L29.040054 114.22941L28.867194 113.08789L28.728827 111.93391L28.676807 111.36253L28.638497 110.80039L28.615587 110.25158L28.609787 109.72025L28.622777 109.21048L28.656247 108.72641L28.711897 108.27215L28.791417 107.85181L28.896509 107.4695L29.028865 107.12935L29.105795 106.97637L29.190175 106.83547L29.282225 106.70717L29.382145 106.59198L29.490153 106.49041L29.60646 106.40301L29.731277 106.33021L29.864817 106.27261L30.005653 106.22971L30.152052 106.20061L30.303766 106.18481L30.460544 106.18181L30.788301 106.21291L31.133331 106.29061L31.493641 106.41147L31.86724 106.57219L32.252135 106.76943L32.646336 106.99985L33.047849 107.26011L33.454682 107.54687L33.864845 107.85678L34.276344 108.18651L34.687187 108.53272L35.095384 108.89207L35.895868 109.63681L36.661859 110.39401L37.37742 111.13695L38.026618 111.83891L38.593514 112.47317L39.416661 113.43167L39.719374 113.79867L39.719374 113.79867" />
    <path
       inkscape:connector-curvature="0"
       id="path2176"
       style="fill:none;stroke:#373435;stroke-width:0.19644365;stroke-linecap:butt;stroke-linejoin:miter;stroke-miterlimit:22.92558479;stroke-dasharray:none;stroke-opacity:1"
       d="M57.345756 113.7987L57.9883 113.95073L58.698655 114.14516L59.585889 114.42242L60.076498 114.59302L60.588121 114.78543L61.113022 115.00002L61.643467 115.23714L62.17172 115.49716L62.690045 115.78045L63.190708 116.08737L63.665973 116.41828L64.513075 117.05902L65.220019 117.60999L65.795193 118.07254L66.246983 118.44799L66.813958 118.94295L66.988039 119.10556L67.117886 118.59776L67.435123 117.24996L67.63012 116.34337L67.831296 115.32554L68.025092 114.22941L68.197951 113.08789L68.336318 111.93391L68.388328 111.36253L68.426628 110.80039L68.449538 110.25158L68.455338 109.72025L68.442348 109.21048L68.408878 108.72641L68.353228 108.27215L68.273708 107.85181L68.168615 107.4695L68.036257 107.12935L67.959327 106.97637L67.874947 106.83547L67.782897 106.70717L67.682977 106.59198L67.574969 106.49041L67.458661 106.40301L67.333843 106.33021L67.200303 106.27261L67.059467 106.22971L66.913067 106.20061L66.761354 106.18481L66.604575 106.18181L66.276819 106.21291L65.93179 106.29061L65.57148 106.41147L65.197881 106.57219L64.812986 106.76943L64.418786 106.99985L64.017274 107.26011L63.61044 107.54687L63.200278 107.85678L62.788779 108.18651L62.377935 108.53272L61.969739 108.89207L61.169255 109.63681L60.403265 110.39401L59.687703 111.13695L59.038507 111.83891L58.47161 112.47317L57.648463 113.43167L57.345751 113.79867L57.345751 113.79867" />
    <path
       inkscape:connector-curvature="0"
       id="path2146"
       style="display:inline;fill:none;stroke:#373435;stroke-width:0.35359856;stroke-linecap:butt;stroke-linejoin:miter;stroke-miterlimit:22.92558479;stroke-dasharray:none;stroke-opacity:1"
       d="M54.614132 109.9288L55.161277 109.34913L55.721623 108.77605L56.293689 108.21106L56.875993 107.65563L57.467051 107.11125L58.065383 106.5794L58.669506 106.06157L59.277937 105.55923L59.752378 105.18088L60.265853 104.78586L60.814184 104.3823L61.393197 103.97829L61.998717 103.58196L62.626568 103.20143L63.272576 102.84481L63.932566 102.52021L64.602362 102.23576L64.939633 102.11112L65.277789 101.99956L65.61631 101.90206L65.954673 101.81966L66.292356 101.75346L66.628838 101.70436L66.963596 101.67346L67.296108 101.66166L67.625854 101.66966L67.952311 101.69926L68.274956 101.75106L68.593268 101.82606L68.906726 101.92536L69.214807 102.04988L69.420927 102.14908L69.617787 102.25672L69.984547 102.49585L70.316729 102.76469L70.615973 103.06068L70.883919 103.38128L71.122206 103.72394L71.332478 104.08612L71.516373 104.46526L71.675533 104.85882L71.811598 105.26424L71.926208 105.67899L72.020998 106.10052L72.097618 106.52627L72.157708 106.95371L72.202908 107.38028L72.234858 107.80343L72.268538 108.6312L72.270638 109.46275L72.245148 110.29652L72.195938 111.13096L72.126908 111.96447L72.041958 112.7955L71.839944 114.44382L71.631391 115.91631L71.403626 117.38585L71.17052 118.85457L70.945937 120.32459L71.3247 120.99414L71.671148 121.67966L71.984094 122.38035L72.262349 123.09544L73.338467 122.5884L73.536329 122.19672L73.766888 121.8254L74.028539 121.47643L74.31968 121.15182L74.638706 120.85355L74.984014 120.58363L75.354002 120.34408L75.747063 120.13686L75.981189 120.03377L76.217729 119.94377L76.456262 119.86667L76.696368 119.80227L76.937625 119.75057L77.179614 119.71127L77.421914 119.68427L77.664104 119.66937L77.905763 119.66637L78.146471 119.67537L78.62335 119.72807L79.091376 119.82607L79.547183 119.96821L79.987406 120.15321L80.408678 120.37981L80.807637 120.64674L80.997697 120.79494L81.18092 120.95275L81.356877 121.12002L81.525153 121.29658L81.685326 121.48229L81.836969 121.67698L81.979674 121.88048L82.113017 122.09267L82.236574 122.31336L82.349919 122.54241L82.493945 122.88586L82.610513 123.23417L82.700093 123.58601L82.763133 123.94005L82.800153 124.29497L82.811553 124.64944L82.797873 125.00214L82.759513 125.35173L82.697023 125.69691L82.610763 126.03633L82.501254 126.36868L82.368956 126.69263L82.214341 127.00685L82.037874 127.31003L81.840017 127.60082L81.621242 127.87792L81.982541 128.02485L82.328881 128.19877L82.659013 128.39829L82.971669 128.62206L83.265609 128.8687L83.539582 129.13687L83.792324 129.42518L84.022591 129.73227L84.229118 130.05678L84.410672 130.39734L84.565978 130.75258L84.693803 131.12115L84.792873 131.50167L84.861973 131.89277L84.899783 132.2931L84.905283 132.70128L84.879103 133.09317L84.823293 133.47617L84.738983 133.84914L84.627368 134.21092L84.489622 134.56037L84.326927 134.89633L84.14046 135.21765L83.931409 135.52319L83.700961 135.81177L83.450279 136.08227L83.180551 136.33353L82.892963 136.56439L82.588686 136.7737L82.268907 136.96032L81.934806 137.12308L81.587562 137.26085L81.811313 137.53842L82.013815 137.83012L82.194599 138.1346L82.353183 138.45049L82.489089 138.77644L82.601837 139.11108L82.690937 139.45304L82.755947 139.80097L82.796347 140.15351L82.811677 140.50928L82.801457 140.86694L82.765217 141.22512L82.702407 141.58245L82.612617 141.93757L82.495365 142.28913L82.350152 142.63576L82.236806 142.86481L82.11325 143.08551L81.979907 143.29769L81.837201 143.50121L81.685558 143.6959L81.525386 143.88161L81.357109 144.05818L81.181152 144.22545L80.997929 144.38327L80.80787 144.53147L80.408911 144.7984L79.987638 145.025L79.547415 145.21L79.091608 145.35214L78.623583 145.45014L78.146703 145.50284L77.905995 145.51184L77.664336 145.50884L77.422146 145.49394L77.179847 145.46694L76.937857 145.42764L76.6966 145.37594L76.456494 145.31154L76.217961 145.23444L75.981421 145.14444L75.747296 145.04135L75.354103 144.83406L74.984039 144.59443L74.6387 144.32447L74.319679 144.02617L74.028574 143.70155L73.766979 143.35261L73.536488 142.98136L73.3387 142.58979L67.663907 139.91612L67.1815 140.35611L66.685954 140.78101L66.177795 141.19089L65.657554 141.58582L65.12576 141.96588L64.582944 142.33113L64.029633 142.68166L63.466357 143.01753L62.893646 143.33882L62.312029 143.64562L61.722036 143.93797L61.124195 144.21597L60.519037 144.4797L59.907089 144.72921L59.288883 144.96458L58.664947 145.1859L58.035811 145.39323L57.402003 145.58664L56.764054 145.76622L56.122493 145.93203L55.477848 146.08416L54.83065 146.22266L54.181428 146.34763L53.53071 146.45912L52.879028 146.55722L52.226909 146.64202L51.574883 146.71352L50.92348 146.77182L50.273229 146.81712L49.624659 146.84932L48.9783 146.86862L48.334681 146.87462L47.691061 146.86862L47.044703 146.84932L46.396132 146.81712L45.745882 146.77182L45.094479 146.71352L44.442453 146.64202L43.790334 146.55722L43.138651 146.45912L42.487934 146.34763L41.838713 146.22266L41.191514 146.08416L40.54687 145.93203L39.905308 145.76622L39.26736 145.58664L38.633552 145.39323L38.004416 145.1859L37.38048 144.96458L36.762274 144.72921L36.150327 144.4797L35.545168 144.21597L34.947328 143.93797L34.357334 143.64562L33.775717 143.33882L33.203006 143.01753L32.639731 142.68166L32.086419 142.33113L31.543602 141.96588L31.011808 141.58582L30.491568 141.19089L29.983409 140.78101L29.487861 140.35611L29.005455 139.91612L23.330662 142.58979L23.132872 142.98136L22.902383 143.35261L22.640787 143.70155L22.349682 144.02617L22.030662 144.32447L21.685322 144.59443L21.315258 144.83406L20.922066 145.04135L20.687937 145.14444L20.451396 145.23444L20.21286 145.31154L19.972752 145.37594L19.731492 145.42764L19.489501 145.46694L19.247199 145.49394L19.005007 145.50884L18.763347 145.51184L18.522636 145.50284L18.045755 145.45014L17.577726 145.35214L17.121916 145.20999L16.68169 145.02498L16.260415 144.79839L15.861455 144.53144L15.671394 144.38324L15.488175 144.22543L15.312216 144.05816L15.143941 143.88159L14.983768 143.69588L14.832117 143.50118L14.689412 143.29766L14.556071 143.08547L14.432516 142.86477L14.319167 142.63572L14.173957 142.28911L14.056702 141.93756L13.966922 141.58244L13.904142 141.22512L13.867872 140.86694L13.857642 140.50929L13.872962 140.15352L13.913362 139.80098L13.978352 139.45306L14.067462 139.11109L14.180214 138.77645L14.316124 138.45051L14.474713 138.13462L14.655502 137.83013L14.85801 137.53843L15.081758 137.26087L14.734508 137.12311L14.400401 136.96034L14.080618 136.77373L13.776339 136.56442L13.488744 136.33357L13.219014 136.08232L12.968331 135.81182L12.737873 135.52323L12.528822 135.2177L12.342359 134.89638L12.179664 134.56042L12.041917 134.21096L11.9303 133.84918L11.84599 133.4762L11.79017 133.09319L11.76402 132.7013L11.76932 132.29312L11.80715 131.89279L11.87623 131.50168L11.97531 131.12116L12.103129 130.7526L12.25844 130.39735L12.439988 130.0568L12.646522 129.73229L12.876788 129.4252L13.129532 129.13688L13.403502 128.86872L13.697443 128.62207L14.010104 128.3983L14.340232 128.19878L14.686572 128.02487L15.047872 127.87793L14.829096 127.60084L14.631242 127.31004L14.454775 127.00687L14.300161 126.69265L14.167868 126.3687L14.058361 126.03635L13.972111 125.69693L13.909581 125.35176L13.871241 125.00217L13.857551 124.64948L13.868971 124.29501L13.905981 123.9401L13.969041 123.58607L14.058621 123.23424L14.175186 122.88594L14.319202 122.5425L14.432548 122.31345L14.556099 122.09276L14.689436 121.88057L14.832139 121.67705L14.983786 121.48236L15.143956 121.29665L15.312229 121.12009L15.488185 120.95282L15.671402 120.79501L15.86146 120.6468L16.260418 120.37987L16.681691 120.15326L17.121913 119.96827L17.577721 119.82612L18.045749 119.72812L18.52263 119.67542L18.76334 119.66642L19.005 119.66942L19.247192 119.68432L19.489494 119.71132L19.731485 119.75062L19.972745 119.80232L20.212853 119.86662L20.451388 119.94372L20.68793 120.03372L20.922058 120.13681L21.31525 120.34409L21.685315 120.58371L22.030654 120.85368L22.349674 121.15197L22.640779 121.47658L22.902375 121.82553L23.132865 122.19678L23.330654 122.58834L24.406815 123.09538L24.685242 122.37986L24.998408 121.67873L25.345116 120.99281L25.724171 120.32288L25.280097 117.37059L25.063566 115.89367L24.867664 114.4137L24.681707 112.76419L24.605267 111.93261L24.544987 111.09867L24.504697 110.26401L24.488227 109.43027L24.499427 108.59909L24.542147 107.77211L24.578507 107.35095L24.627987 106.92646L24.692187 106.50118L24.772707 106.07762L24.871137 105.65833L24.989075 105.24581L25.128121 104.84261L25.289871 104.45124L25.475923 104.07424L25.687876 103.71414L25.927327 103.37345L26.195874 103.05471L26.495113 102.76045L26.826644 102.49318L27.192064 102.25545L27.59297 102.04977L27.901237 101.92515L28.214635 101.82585L28.532654 101.75085L28.854786 101.69915L29.180521 101.66975L29.509351 101.66175L29.840766 101.67385L30.174257 101.70515L30.509315 101.75465L30.84543 101.82135L31.182094 101.90425L31.518798 102.00235L31.855032 102.11457L32.190286 102.23992L32.855822 102.52596L33.511332 102.85233L34.152743 103.21092L34.775982 103.59359L35.376976 103.99221L35.951651 104.39866L36.495934 104.80481L37.005752 105.20253L37.477031 105.58369L38.075582 106.08487L38.669186 106.60078L39.256631 107.13003L39.836708 107.67122L40.408206 108.22298L40.969916 108.78389L41.520627 109.35258L42.059127 109.92765L42.83548 109.78576L43.615124 109.66317L44.397571 109.55976L45.182329 109.47546L45.968909 109.41006L46.75682 109.36346L47.545573 109.33556L48.334676 109.32656L49.124295 109.33556L49.913562 109.36346L50.701987 109.41006L51.489079 109.47556L52.274348 109.56006L53.057304 109.6636L53.837455 109.78635L54.614311 109.92842L54.614311 109.92842" />
  </g>
</svg>
