<?xml version="1.0" encoding="UTF-8" standalone="no"?>
<!-- Created with Inkscape (http://www.inkscape.org/) -->

<svg
   xmlns:dc="http://purl.org/dc/elements/1.1/"
   xmlns:cc="http://creativecommons.org/ns#"
   xmlns:rdf="http://www.w3.org/1999/02/22-rdf-syntax-ns#"
   xmlns:svg="http://www.w3.org/2000/svg"
   xmlns="http://www.w3.org/2000/svg"
   xmlns:sodipodi="http://sodipodi.sourceforge.net/DTD/sodipodi-0.dtd"
   xmlns:inkscape="http://www.inkscape.org/namespaces/inkscape"
   width="187.07332mm"
   height="115.98264mm"
   viewBox="0 0 187.07332 115.98264"
   version="1.1"
   id="svg8"
   sodipodi:docname="meowmeow1.svg"
   inkscape:version="0.91 r13725">
  <defs
     id="defs2">
    <clipPath
       id="clipPath50"
       clipPathUnits="userSpaceOnUse">
      <path
         inkscape:connector-curvature="0"
         id="path48"
         d="m 0,1224 792,0 L 792,0 0,0 Z" />
    </clipPath>
    <clipPath
       id="clipPath1730"
       clipPathUnits="userSpaceOnUse">
      <path
         inkscape:connector-curvature="0"
         id="path1728"
         d="m 0,1224 792,0 L 792,0 0,0 Z" />
    </clipPath>
  </defs>
  <sodipodi:namedview
     id="base"
     pagecolor="#ffffff"
     bordercolor="#666666"
     borderopacity="1.0"
     inkscape:pageopacity="0.0"
     inkscape:pageshadow="2"
     inkscape:zoom="1.26"
     inkscape:cx="463.56133"
     inkscape:cy="190.99786"
     inkscape:document-units="mm"
     inkscape:current-layer="layer2"
     showgrid="false"
     inkscape:snap-global="false"
     inkscape:window-width="1440"
     inkscape:window-height="878"
     inkscape:window-x="0"
     inkscape:window-y="0"
     inkscape:window-maximized="1"
     showguides="true"
     inkscape:guide-bbox="true"
     fit-margin-top="0"
     fit-margin-left="0"
     fit-margin-right="0"
     fit-margin-bottom="0">
    <sodipodi:guide
       position="-127.24528,-14.63191"
       orientation="1,0"
       id="guide2416"
       inkscape:locked="false" />
  </sodipodi:namedview>
  <metadata
     id="metadata5">
    <rdf:RDF>
      <cc:Work
         rdf:about="">
        <dc:format>image/svg+xml</dc:format>
        <dc:type
           rdf:resource="http://purl.org/dc/dcmitype/StillImage" />
        <dc:title />
      </cc:Work>
    </rdf:RDF>
  </metadata>
  <g
     inkscape:label="Cu"
     inkscape:groupmode="layer"
     id="layer1"
     style="display:none"
     transform="translate(-11.584566,-31.069974)">
    <g
       id="g2372"
       transform="matrix(0.4918608,0,0,0.4918608,-174.91615,-107.31898)" />
  </g>
  <g
     inkscape:groupmode="layer"
     id="layer6"
     inkscape:label="Extras"
     style="display:inline"
     transform="translate(-11.584566,-31.069974)">
    <path
       d="m 180.23503,85.987422 c 2.1481,0 3.88941,1.74128 3.88941,3.88938 0,2.1481 -1.74131,3.889407 -3.88941,3.889407 -2.1481,0 -3.88941,-1.741307 -3.88941,-3.889407 0,-2.1481 1.74131,-3.88938 3.88941,-3.88938 z"
       style="display:inline;fill:none;stroke:#373435;stroke-width:0.5;stroke-linecap:butt;stroke-linejoin:miter;stroke-miterlimit:22.92558479;stroke-dasharray:none;stroke-opacity:1"
       id="path2154"
       inkscape:connector-curvature="0" />
    <path
       d="m 185.52673,106.30742 c 2.1481,0 3.88941,1.74128 3.88941,3.88938 0,2.1481 -1.74131,3.88941 -3.88941,3.88941 -2.1481,0 -3.88941,-1.74131 -3.88941,-3.88941 0,-2.1481 1.74131,-3.88938 3.88941,-3.88938 z"
       style="display:inline;fill:none;stroke:#373435;stroke-width:0.5;stroke-linecap:butt;stroke-linejoin:miter;stroke-miterlimit:22.92558479;stroke-dasharray:none;stroke-opacity:1"
       id="path2152"
       inkscape:connector-curvature="0" />
    <g
       id="g2164"
       transform="matrix(0.35277778,0,0,-0.35277778,11.997531,267.42851)"
       style="display:inline;stroke-width:1.41732287;stroke-miterlimit:22.92558479;stroke-dasharray:none">
      <path
         d="m 383.1418,407.8213 c 6.0891,0 11.025,-4.9359 11.025,-11.025 0,-6.0892 -4.9359,-11.0251 -11.025,-11.0251 -6.0891,0 -11.0251,4.9359 -11.0251,11.0251 0,6.0891 4.936,11.025 11.0251,11.025 z"
         style="fill:none;stroke:#373435;stroke-width:1.41732287;stroke-linecap:butt;stroke-linejoin:miter;stroke-miterlimit:22.92558479;stroke-dasharray:none;stroke-opacity:1"
         id="path2166"
         inkscape:connector-curvature="0" />
      <path
         d="m 415.9922,529.0209 c 6.0891,0 11.0251,-4.936 11.0251,-11.0251 0,-6.0891 -4.936,-11.0251 -11.0251,-11.0251 -6.0891,0 -11.0251,4.936 -11.0251,11.0251 0,6.0891 4.936,11.0251 11.0251,11.0251 z"
         style="fill:none;stroke:#373435;stroke-width:1.41732287;stroke-linecap:butt;stroke-linejoin:miter;stroke-miterlimit:22.92558479;stroke-dasharray:none;stroke-opacity:1"
         id="path2168"
         inkscape:connector-curvature="0" />
    </g>
    <g
       id="g2170"
       transform="matrix(0.35277778,0,0,-0.35277778,11.997531,267.42851)"
       style="display:inline;stroke-width:1.41732287;stroke-miterlimit:22.92558479;stroke-dasharray:none">
      <path
         d="m 145.3915,407.8213 c -6.0891,0 -11.025,-4.9359 -11.025,-11.025 0,-6.0892 4.9359,-11.0251 11.025,-11.0251 6.0891,0 11.0251,4.9359 11.0251,11.0251 0,6.0891 -4.936,11.025 -11.0251,11.025 z"
         style="fill:none;stroke:#373435;stroke-width:1.41732287;stroke-linecap:butt;stroke-linejoin:miter;stroke-miterlimit:22.92558479;stroke-dasharray:none;stroke-opacity:1"
         id="path2172"
         inkscape:connector-curvature="0" />
      <path
         d="m 112.5411,529.0209 c -6.0891,0 -11.0251,-4.936 -11.0251,-11.0251 0,-6.0891 4.936,-11.0251 11.0251,-11.0251 6.0891,0 11.0251,4.936 11.0251,11.0251 0,6.0891 -4.936,11.0251 -11.0251,11.0251 z"
         style="fill:none;stroke:#373435;stroke-width:1.41732287;stroke-linecap:butt;stroke-linejoin:miter;stroke-miterlimit:22.92558479;stroke-dasharray:none;stroke-opacity:1"
         id="path2174"
         inkscape:connector-curvature="0" />
    </g>
    <g
       id="g2156"
       transform="matrix(0.35277778,0,0,-0.35277778,11.997531,267.42851)"
       style="display:inline;stroke-width:1.41732287;stroke-miterlimit:22.92558479;stroke-dasharray:none">
      <path
         d="m 51.3575,399.0467 c -6.0891,0 -11.025,-4.936 -11.025,-11.0251 0,-6.0891 4.9359,-11.0251 11.025,-11.0251 6.0891,0 11.0251,4.936 11.0251,11.0251 0,6.0891 -4.936,11.0251 -11.0251,11.0251 z"
         style="fill:none;stroke:#373435;stroke-width:1.41732287;stroke-linecap:butt;stroke-linejoin:miter;stroke-miterlimit:22.92558479;stroke-dasharray:none;stroke-opacity:1"
         id="path2158"
         inkscape:connector-curvature="0" />
      <path
         d="m 36.358,456.7212 c -6.0891,0 -11.0251,-4.9359 -11.0251,-11.025 0,-6.0891 4.936,-11.0251 11.0251,-11.0251 6.0891,0 11.0251,4.936 11.0251,11.0251 0,6.0891 -4.936,11.025 -11.0251,11.025 z"
         style="fill:none;stroke:#373435;stroke-width:1.41732287;stroke-linecap:butt;stroke-linejoin:miter;stroke-miterlimit:22.92558479;stroke-dasharray:none;stroke-opacity:1"
         id="path2160"
         inkscape:connector-curvature="0" />
      <path
         d="m 51.3581,514.3212 c -6.0891,0 -11.0251,-4.9359 -11.0251,-11.025 0,-6.0891 4.936,-11.0251 11.0251,-11.0251 6.0891,0 11.0251,4.936 11.0251,11.0251 0,6.0891 -4.936,11.025 -11.0251,11.025 z"
         style="fill:none;stroke:#373435;stroke-width:1.41732287;stroke-linecap:butt;stroke-linejoin:miter;stroke-miterlimit:22.92558479;stroke-dasharray:none;stroke-opacity:1"
         id="path2162"
         inkscape:connector-curvature="0" />
    </g>
    <path
       d="m 180.23524,126.65371 c 2.1481,0 3.88937,1.74131 3.88937,3.88941 0,2.14809 -1.74127,3.88941 -3.88937,3.88941 -2.1481,0 -3.88941,-1.74132 -3.88941,-3.88941 0,-2.1481 1.74131,-3.88941 3.88941,-3.88941 z"
       style="display:inline;fill:none;stroke:#373435;stroke-width:0.5;stroke-linecap:butt;stroke-linejoin:miter;stroke-miterlimit:22.92558479;stroke-dasharray:none;stroke-opacity:1"
       id="path2150"
       inkscape:connector-curvature="0" />
  </g>
  <g
     inkscape:groupmode="layer"
     id="layer5"
     inkscape:label="Mask"
     style="display:inline"
     transform="translate(-11.584566,-31.069974)" />
  <g
     inkscape:groupmode="layer"
     id="layer2"
     inkscape:label="SilkS"
     style="display:inline"
     transform="translate(-11.584566,-31.069974)">
    <path
       d="m 180.40563,112.8784 c 0.9464,1.83611 2.82578,3.11641 5.01869,3.1779 3.21641,0.0901 5.90581,-2.47449 5.99521,-5.71687 0.0894,-3.24242 -2.45459,-5.95362 -5.6709,-6.04383 -2.19301,-0.0614 -4.1401,1.11192 -5.18601,2.8919 l -20.0974,-0.56318 c 0.3943,-1.4872 0.68051,-3.00221 0.84741,-4.5419 l 15.5152,-7.310191 c 1.66239,1.2132 3.91188,1.50819 5.89939,0.57178 2.9149,-1.3734 4.17809,-4.881487 2.8157,-7.820097 -1.36239,-2.9385 -4.84219,-4.21188 -7.75709,-2.83848 -1.98741,0.93638 -3.20601,2.86519 -3.34909,4.92929 l -13.1039,6.173997 c -0.54702,-5.438697 -2.5484,-10.583187 -5.72883,-15.227017 1.67012,-12.4363 7.37863,-38.4846 -0.12389,-41.86389 -6.77609,-3.0522 -23.72911,11.59429 -31.95959,21.3553 -5.76672,-1.4478 -11.9561,-2.23619 -18.3993,-2.23619 -6.443199,0 -12.632509,0.78839 -18.399299,2.23619 -8.23052,-9.76101 -24.83069,-24.4075 -31.60681,-21.3553 -7.50249,3.37929 -2.14679,29.4277 -0.47671,41.86389 -3.18039,4.64383 -5.18177,9.78842 -5.72868,15.227017 l -13.104,-6.173997 c -0.14309,-2.0641 -1.36159,-3.99291 -3.34899,-4.92929 -2.91501,-1.3734 -6.39481,-0.10002 -7.7572,2.83848 -1.36232,2.93861 -0.0991,6.446697 2.8157,7.820097 1.98748,0.93641 4.237,0.64142 5.8995,-0.57178 l 15.51509,7.310191 c 0.1669,1.53969 0.45311,3.0547 0.84741,4.5419 l -20.09732,0.56318 c -1.04599,-1.77998 -2.99308,-2.95328 -5.18608,-2.8919 -3.21631,0.0902 -5.7603,2.80141 -5.67091,6.04383 0.0894,3.24238 2.7788,5.807 5.99521,5.71687 2.19291,-0.0615 4.0724,-1.34179 5.01869,-3.1779 l 22.01961,-0.61708 c 0.6143,1.28778 1.31459,2.54618 2.09557,3.77208 l -20.53727,9.67631 c -1.6625,-1.2131 -3.91202,-1.5082 -5.8995,-0.57168 -2.91479,1.3734 -4.17802,4.88139 -2.8157,7.81999 1.36239,2.9386 4.84219,4.21188 7.7572,2.83849 1.9874,-0.93638 3.2059,-2.86509 3.34899,-4.9293 l 21.6239,-10.18818 c 9.98491,11.49889 27.61071,19.13759 47.691599,19.13759 20.08089,0 37.70669,-7.6387 47.6916,-19.13759 l 21.62391,10.18818 c 0.14308,2.06421 1.36168,3.99292 3.34909,4.9293 2.9149,1.37339 6.3947,0.10011 7.75709,-2.83849 1.36239,-2.9386 0.0992,-6.44659 -2.8157,-7.81999 -1.98751,-0.93652 -4.237,-0.64142 -5.89939,0.57168 l -20.53742,-9.67631 c 0.78102,-1.2259 1.48132,-2.4843 2.09571,-3.77208 z"
       style="display:inline;fill:none;stroke:#373435;stroke-width:2.5;stroke-linecap:butt;stroke-linejoin:miter;stroke-miterlimit:22.92558479;stroke-dasharray:none;stroke-opacity:1"
       id="path2148"
       inkscape:connector-curvature="0" />
    <path
       transform="translate(-1.2307052e-7,-1.2002738e-6)"
       d="m 121.51492,88.458002 c -7.32758,7.386707 -5.9847,20.720398 -5.9847,20.720398 0,0 13.22642,1.35491 20.5541,-6.03208 7.3291,-7.386921 5.98382,-20.722018 5.98382,-20.722018 0,0 -13.22641,-1.35347 -20.55322,6.0337"
       style="display:inline;fill:#373435;fill-opacity:1;fill-rule:evenodd;stroke:none;stroke-width:0.5;stroke-miterlimit:22.92558479;stroke-dasharray:none"
       id="path2182"
       inkscape:connector-curvature="0" />
    <path
       transform="translate(-1.2307052e-7,-1.2002738e-6)"
       d="m 88.728041,88.457822 c -7.3278,-7.38699 -20.55383,-6.0337 -20.55383,-6.0337 0,0 -1.34468,13.332597 5.98312,20.722198 7.32779,7.38699 20.55491,6.03208 20.55491,6.03208 0,0 1.34447,-13.333691 -5.9842,-20.720578"
       style="display:inline;fill:#373435;fill-opacity:1;fill-rule:evenodd;stroke:none;stroke-width:0.5;stroke-miterlimit:22.92558479;stroke-dasharray:none"
       id="path2180"
       inkscape:connector-curvature="0" />
  </g>
  <g
     inkscape:groupmode="layer"
     id="layer3"
     inkscape:label="Edge.Cuts"
     style="display:inline"
     transform="translate(-11.584566,-31.069974)">
    <path
       d="m 83.193521,62.413332 c 0,0 -9.8424,2.01087 -16.0866,6.6675 -6.2442,4.6566 -8.45548,6.8398 -8.45548,6.8398 0,0 -8.03201,-29.9563 -0.54032,-32.6632 7.4917,-2.7069 25.0824,19.1559 25.0824,19.1559 z"
       style="fill:none;stroke:#373435;stroke-width:0.5;stroke-linecap:butt;stroke-linejoin:miter;stroke-miterlimit:22.92558479;stroke-dasharray:none;stroke-opacity:1"
       id="path2178"
       inkscape:connector-curvature="0" />
    <path
       d="m 128.05722,62.413332 c 0,0 9.84239,2.01087 16.08659,6.6675 6.24421,4.6566 8.45552,6.8398 8.45552,6.8398 0,0 8.03201,-29.9563 0.54028,-32.6632 -7.49169,-2.7069 -25.08239,19.1559 -25.08239,19.1559 z"
       style="fill:none;stroke:#373435;stroke-width:0.5;stroke-linecap:butt;stroke-linejoin:miter;stroke-miterlimit:22.92558479;stroke-dasharray:none;stroke-opacity:1"
       id="path2176"
       inkscape:connector-curvature="0" />
    <path
       d="m 121.10453,52.563422 c 3.66551,-3.95351 7.72968,-7.76809 11.87059,-11.1217 6.1566,-4.98609 17.0054,-12.6637 25.29191,-8.93121 5.7236,2.578 7.33569,8.93491 7.68681,14.64441 0.34449,5.6019 -0.2733,11.34939 -1.00503,16.90151 -0.65948,5.00458 -1.54347,9.97469 -2.27548,14.96808 1.33889,2.2443 2.46651,4.6022 3.35061,7.05252 l 2.739,-1.29053 c 1.22837,-2.72299 3.38797,-4.94768 6.1305,-6.23979 6.3198,-2.9778 13.87098,-0.20758 16.80598,6.12281 2.14351,4.6234 1.25501,9.917777 -1.85469,13.580277 5.00041,1.805311 8.51228,6.688601 8.35829,12.276701 -0.1482,5.37482 -3.6468,9.91003 -8.44441,11.6053 3.17931,3.66571 4.1039,9.01481 1.94081,13.68051 -2.935,6.3306 -10.48618,9.10071 -16.80598,6.12292 -2.74362,-1.29262 -4.90262,-3.51773 -6.1305,-6.23983 l -14.44382,-6.80519 c -12.91388,12.15129 -31.76598,17.71241 -49.19789,17.71241 -17.431909,0 -36.283999,-5.56112 -49.197889,-17.71241 l -14.44382,6.80519 c -1.22788,2.7221 -3.38688,4.94721 -6.1305,6.23983 -6.31987,2.97779 -13.87108,0.20757 -16.80609,-6.12303 -2.16309,-4.66559 -1.23832,-10.01469 1.94099,-13.6804 -4.79768,-1.6952 -8.29628,-6.23037 -8.44448,-11.6053 -0.15402,-5.5881 3.35788,-10.47139 8.35829,-12.276701 -3.1097,-3.6625 -3.9981,-8.956877 -1.85469,-13.580067 2.9349,-6.33053 10.48611,-9.10072 16.80598,-6.12302 2.74362,1.29261 4.90262,3.51772 6.1305,6.23979 l 2.73911,1.29053 c 0.88459,-2.45181 2.01309,-4.81122 3.35301,-7.05672 -0.72281,-5.01431 -1.5646,-10.01049 -2.18003,-15.0404 -0.67987,-5.5559 -1.23408,-11.30949 -0.82856,-16.90458 0.41186,-5.68311 2.07489,-12.00182 7.76516,-14.56482 8.29501,-3.73641 19.04002,3.96942 25.1575,8.99439 4.07663,3.34853 8.0518,7.13482 11.66262,11.05651 5.2571,-1.0288 10.61689,-1.53049 15.972899,-1.53049 5.35951,0 10.72279,0.50239 15.9833,1.5325 z"
       style="display:inline;fill:none;stroke:#373435;stroke-width:0.89999998;stroke-linecap:butt;stroke-linejoin:miter;stroke-miterlimit:22.92558479;stroke-dasharray:none;stroke-opacity:1"
       id="path2146"
       inkscape:connector-curvature="0" />
  </g>
</svg>
